<svg width="790" height="236" viewBox="0 0 790 236" fill="none" xmlns="http://www.w3.org/2000/svg">
<g clip-path="url(#clip0_6_26)">
<path d="M276.383 36.3938L259.412 93.8171L257.688 84.5786C255.056 85.6655 250.609 86.5712 246.615 86.5712C234.817 86.5712 227.829 78.9631 227.829 66.8263C227.829 53.3309 235.997 46.8097 246.525 46.8097C251.244 46.8097 254.965 47.8965 257.688 49.074L260.41 38.2052C258.051 36.9372 252.878 35.488 245.98 35.488C228.192 35.488 213.944 46.9908 213.944 67.732C213.944 85.0315 224.38 98.074 244.619 98.074C251.062 98.074 256.145 96.9871 258.867 95.8097L258.504 97.1683H272.208L276.383 81.5897H293.173L297.711 97.1683H311.959L293.808 36.5749H276.383V36.3938ZM278.289 71.1738L281.738 58.3124C282.736 54.7801 283.553 50.2514 284.46 46.6285H284.642C285.549 50.2514 286.548 54.6895 287.637 58.3124L291.267 71.1738H278.289ZM350.076 40.8318C346.174 37.5712 340.365 35.9409 332.197 35.9409C324.12 35.9409 318.403 36.4843 314.319 37.2089V96.9871H327.478V75.3402C328.658 75.5213 330.292 75.6119 332.016 75.6119C339.821 75.6119 346.537 73.6193 351.075 69.1812C354.523 65.7394 356.429 60.7579 356.429 54.7801C356.338 48.8928 353.797 43.8208 350.076 40.8318ZM331.744 65.1054C329.838 65.1054 328.477 65.0148 327.297 64.7431V46.8097C328.295 46.5379 330.11 46.2662 332.742 46.2662C339.367 46.2662 343.088 49.6174 343.088 55.1424C343.179 61.3919 338.823 65.1054 331.744 65.1054ZM358.244 36.3938H371.585V96.9871H358.244V36.3938ZM418.052 47.8965H402.079V96.9871H388.738V47.8965H373.037V36.3938H418.052V47.8965ZM425.947 36.3938L407.978 96.9871H421.682L425.857 81.4086H442.646L447.184 96.9871H461.433L443.282 36.3938H425.947ZM427.853 71.1738L431.302 58.3124C432.3 54.7801 433.117 50.2514 434.025 46.6285H434.206C435.114 50.2514 436.112 54.6895 437.201 58.3124L440.831 71.1738H427.853ZM477.043 85.5749H500.367V97.0777H463.792V36.4843H477.133V85.5749H477.043ZM593.481 35.3975C577.962 35.3975 567.344 46.3568 565.347 61.6636C564.621 52.8781 560.991 46.5379 555.546 42.3716C549.919 37.9335 542.658 35.8503 531.496 35.8503C524.78 35.8503 518.427 36.3032 513.617 37.1183V96.6248C516.884 97.0777 521.785 97.5306 528.682 97.5306C540.208 97.5306 549.556 94.9945 555.727 89.7413C560.446 85.6655 563.986 79.4159 565.075 70.7209C566.436 86.2089 576.329 97.8928 592.483 97.8928C609.636 97.8928 621.252 85.8466 621.252 65.9206C621.252 49.3457 611.451 35.3975 593.481 35.3975ZM531.496 86.9335C529.862 86.9335 528.047 86.9335 526.867 86.6618V46.9908C527.956 46.7191 529.953 46.4474 532.857 46.4474C544.292 46.4474 551.371 53.0592 551.28 65.7394C551.371 80.2311 543.566 87.0241 531.496 86.9335ZM593.209 87.1147C584.315 87.1147 578.961 78.7819 578.961 66.9169C578.961 55.1424 584.224 46.3568 593.118 46.3568C602.285 46.3568 607.276 55.6858 607.276 66.5546C607.276 78.3291 602.194 87.1147 593.209 87.1147Z" fill="black"></path>
<path d="M91.2427 101.425L20 77.9668L33.4318 69.0906L104.856 92.3679L91.2427 101.425ZM61.8381 55.7764L48.2248 64.9242L119.649 88.2015L133.262 79.0536L61.8381 55.7764ZM29.0755 103.418L100.5 126.695L113.932 117.819L42.598 94.5416L29.0755 103.418Z" fill="black"></path>
<path d="M769.909 174.971C769.909 173.974 769.183 173.25 768.276 173.25H723.896V111.026C723.896 110.03 722.989 109.124 721.991 109.124H699.846C698.848 109.124 697.94 110.03 697.94 111.026V173.431L676.522 110.754C676.159 110.03 674.798 109.124 673.527 109.124H648.025C646.755 109.124 645.393 110.03 645.03 110.754L622.795 176.057V102.965C622.795 101.969 622.069 101.063 620.889 101.063L598.745 109.124C597.838 109.124 597.021 110.03 597.021 111.026V149.61L575.421 110.845C574.877 109.849 573.697 109.215 572.517 109.215H550.917C549.919 109.215 549.193 110.12 549.193 111.117V176.239L526.958 110.935C526.595 110.211 525.234 109.305 523.963 109.305H498.461C497.19 109.305 495.829 110.211 495.466 110.935L467.695 192.361V131.767H486.3C487.207 131.767 488.205 131.043 488.296 130.046L490.202 111.117C490.293 110.211 489.567 109.396 488.478 109.396H421.591H421.228H399.447C398.539 109.396 397.723 110.301 397.723 111.298V149.882L376.123 111.117C375.578 110.12 374.399 109.486 373.219 109.486H351.619C350.621 109.486 349.895 110.392 349.895 111.388V173.793L328.567 111.117C328.204 110.392 326.843 109.486 325.572 109.486H300.07C298.8 109.486 297.438 110.392 297.075 111.117L289.089 134.484C286.911 119.359 274.296 109.577 254.42 109.577H224.925C224.017 109.577 223.201 110.483 223.201 111.479V193.991C223.201 194.897 224.108 195.712 224.925 195.712H247.341C248.431 195.712 249.338 194.806 249.338 193.991V168.54H254.42C265.402 168.54 274.114 165.551 280.104 160.388L268.669 193.629C268.306 194.353 268.76 195.259 269.758 195.259H294.534C295.623 195.259 296.621 194.625 297.166 193.629L300.887 180.496H324.393L328.114 193.629C328.658 194.625 329.656 195.259 330.745 195.259H351.528H355.522H373.673C374.762 195.259 375.578 194.353 375.578 193.538V154.863L397.36 193.629C397.995 194.625 399.084 195.259 399.992 195.259H421.591C422.68 195.259 423.497 194.353 423.497 193.538V131.677H442.011V193.538C442.011 194.444 442.919 195.259 443.917 195.259H466.061C466.606 195.259 467.06 194.987 467.332 194.625C467.513 194.987 467.876 195.259 468.421 195.259H493.197C494.286 195.259 495.284 194.625 495.829 193.629L499.55 180.496H523.055L526.776 193.629C527.321 194.625 528.319 195.259 529.408 195.259H551.099H554.184H573.243C574.332 195.259 575.149 194.353 575.149 193.538V154.863L596.93 193.629C597.565 194.625 598.654 195.259 599.562 195.259H618.076H621.071H642.852C643.941 195.259 644.94 194.625 645.484 193.629L649.205 180.496H672.711L676.431 193.629C676.976 194.625 677.974 195.259 679.063 195.259H699.937H703.84H745.133C745.224 195.259 745.224 195.259 745.224 195.259C745.315 195.259 745.315 195.259 745.405 195.259C745.768 195.259 746.131 195.078 746.404 194.897L769.455 176.148C769.728 175.876 769.909 175.423 769.909 174.971ZM255.419 146.168H248.884V131.405H255.419C259.775 131.405 262.77 134.394 262.77 138.741C262.77 143.179 259.775 146.168 255.419 146.168ZM305.879 162.653L312.594 138.923L319.31 162.653H305.879ZM504.451 162.653L511.167 138.923L517.882 162.653H504.451ZM654.196 162.653L660.912 138.923L667.628 162.653H654.196Z" fill="black"></path>
<path d="M201.51 203.501C165.117 223.608 119.377 219.713 88.7923 190.911C70.0968 173.34 59.7507 149.157 59.8415 122.619L70.5506 126.151C70.1876 151.331 79.3538 173.34 96.7788 189.643C124.822 216.09 166.297 219.079 200.512 200.874L200.693 201.055C200.875 201.871 201.147 202.686 201.51 203.501ZM200.058 45.9038H200.149C202.145 41.2846 204.868 37.0277 208.226 33.3142C170.018 10.3086 116.382 17.011 84.0731 54.5082L99.4107 59.5803C129.178 33.133 168.385 29.0572 200.058 45.9038Z" fill="black"></path>
</g>
<defs>
<clipPath id="clip0_6_26">
<rect width="750" height="196" fill="white" transform="translate(20 20)"></rect>
</clipPath>
</defs>
</svg>