<svg width="840" height="167" viewBox="0 0 840 167" fill="none" xmlns="http://www.w3.org/2000/svg">
<path fill-rule="evenodd" clip-rule="evenodd" d="M283.429 26.0967C281.154 26.9272 273.591 35.6033 273.591 37.3892C273.591 38.047 277.511 38.8885 280.642 38.9032C281.899 38.9069 284.218 37.2496 288.547 33.2514C291.917 30.1389 294.676 27.144 294.676 26.5964C294.676 25.8247 293.536 25.6153 289.58 25.6594C286.777 25.6888 284.012 25.8872 283.429 26.0967ZM29.5576 40.0057C28.2928 41.2955 29.2995 43.1366 33.0716 46.4439C39.5576 52.1251 50.4536 62.9068 51.8253 64.9978C53.5767 67.6693 54.3326 67.4084 54.3326 64.1232V61.323L59.7788 61.334C79.3179 61.3781 87.7139 69.0841 87.7139 86.9729C87.7139 93.8667 87.6328 94.2122 84.9005 99.5259C80.2913 108.485 73.975 111.748 61.2316 111.748H54.3326V94.6752C54.3326 85.2862 54.1298 76.6027 53.8865 75.379C53.5509 73.7253 52.1719 72.1305 48.5104 69.165C45.8002 66.9711 40.579 62.5724 36.9101 59.3974C33.2375 56.2187 29.9632 53.617 29.6313 53.617C28.6468 53.617 28.868 132.577 29.8562 133.183C30.3098 133.462 39.8452 133.639 51.0436 133.576C73.1195 133.451 78.3481 132.786 86.7257 129.034C95.0627 125.301 103.938 116.661 108.805 107.548C109.731 105.813 110.502 104.623 110.52 104.902C110.612 106.35 106.755 115.107 104.635 118.26C103.297 120.244 102.334 122.001 102.496 122.162C103.606 123.269 118.868 109.033 126.847 99.445L130.579 94.9581L141.32 94.9471C156.342 94.9361 159.041 96.2994 159.041 103.903C159.041 107.089 158.743 107.952 157.05 109.643C154.539 112.141 151.634 112.59 139.716 112.31L130.579 112.097L130.229 107.548L129.878 102.995L126.811 107.548C120.402 117.066 111.431 124.83 100.011 130.743L95.4425 133.11L127.065 133.297C160.889 133.492 163.02 133.33 169.982 130.045C177.179 126.642 181.534 121.916 183.883 114.949C185.221 110.973 185.409 102.965 184.251 99.1143C182.869 94.5209 178.816 89.9127 174.023 87.4873L169.676 85.2862L173.097 83.1658C179.934 78.9325 183.426 71.3845 182.736 62.3225C181.94 51.8237 176.04 45.2238 163.96 41.3176C160.538 40.2115 156.364 40.0351 127.555 39.7778C109.657 39.6198 94.4764 39.697 93.8238 39.9469C92.9425 40.2813 93.9233 41.075 97.5517 42.9675C104.797 46.7452 112.493 54.7084 116.117 62.1829C119.336 68.8122 120.568 73.6996 120.254 78.5797L120.041 81.9825L115.59 73.5894C107.4 58.1333 100.443 50.4567 89.9042 45.2569C80.6269 40.6745 77.3931 40.2078 52.2235 39.8146C40.048 39.6235 29.8489 39.7117 29.5576 40.0057ZM278.824 41.5123L273.868 41.7659L273.101 44.3676C271.364 50.2766 265.708 65.9165 261.375 76.7864C258.831 83.1732 256.667 89.163 256.563 90.0928C256.383 91.7133 256.578 91.7978 260.944 92.0036C268.783 92.3748 269.65 91.9963 271.689 87.3146L273.466 83.2283L280.734 82.8718C284.731 82.6807 288.378 82.6624 288.839 82.8388C289.299 83.0115 290.273 84.9297 290.999 87.1015C292.006 90.1111 292.725 91.1621 294.023 91.5222C296.792 92.2939 305.793 92.2057 306.291 91.4046C306.56 90.9674 307.08 90.9196 307.563 91.2797C308.555 92.0257 318.016 92.4079 319.985 91.7831C321.324 91.3606 321.375 90.9453 320.937 83.7869C320.446 75.7097 320.745 74.8204 323.702 75.6105C324.76 75.8898 326.464 78.2453 329.111 83.0813C331.235 86.9619 333.4 90.4933 333.916 90.9269C335.21 92.0073 347.264 92.5365 348.249 91.5516C348.798 91.0041 347.603 88.4759 343.982 82.5191C339.104 74.5044 338.237 72.5274 339.598 72.5274C340.926 72.5274 344.679 68.7571 346.084 66.012C346.884 64.4502 347.684 61.4185 347.869 59.2725C348.536 51.3497 342.334 43.7944 334.218 42.6405C327.301 41.6556 309.827 41.9165 308.488 43.0227C307.448 43.8789 307.323 46.4181 307.323 66.6183C307.323 79.0685 307.05 89.4239 306.715 89.6297C306.379 89.8355 304.971 86.9398 303.588 83.1915C302.205 79.447 299.122 71.1787 296.74 64.825C294.362 58.4677 291.549 50.589 290.49 47.3148C288.308 40.5459 289.185 40.9795 278.824 41.5123ZM382.906 42.3832C371.066 47.1494 365.822 55.5279 366.508 68.599C366.807 74.2398 367.157 75.6656 369.167 79.4249C378.805 97.446 404.963 97.174 413.938 78.9656C415.745 75.2981 415.9 74.339 415.889 66.9233C415.878 60.1471 415.616 58.2252 414.244 54.8076C412.264 49.8798 408.171 45.6942 402.961 43.2725C397.629 40.7921 387.928 40.3621 382.906 42.3832ZM193.097 42.5817C192.887 43.1292 192.651 54.4255 192.57 67.6803L192.423 91.7868L198.676 91.9926C202.117 92.1029 208.65 91.9044 213.197 91.548C222.471 90.8167 227.802 88.9389 232.017 84.9224C241.327 76.0404 241.154 55.6124 231.696 47.3368C230.454 46.2491 227.589 44.6322 225.336 43.7466C221.663 42.3024 219.794 42.1076 207.36 41.8614C195.83 41.6336 193.418 41.7549 193.097 42.5817ZM242.847 42.1738C242.168 42.4494 241.969 48.002 241.969 66.6183V90.7101L243.547 91.0298C246.958 91.717 253.156 92.1139 254.211 91.7133C255.192 91.3385 255.321 88.4832 255.321 66.9233C255.321 45.3561 255.192 42.5119 254.207 42.137C252.895 41.6336 244.115 41.663 242.847 42.1738ZM351.327 42.2803C351.136 42.5927 350.922 53.8595 350.855 67.3165L350.734 91.7868L357.091 91.7795C360.586 91.7758 363.706 91.5112 364.023 91.1952C364.735 90.4823 364.797 45.4737 364.089 43.2872C363.614 41.8173 363.178 41.7108 357.629 41.7108C354.358 41.7108 351.523 41.968 351.327 42.2803ZM427.113 42.5927C426.928 43.0741 426.858 54.3409 426.962 67.6289L427.146 91.7868L439.093 91.7133C448.009 91.6619 452.017 91.3495 454.904 90.4823C465.417 87.3293 471.324 78.6348 471.39 66.2251C471.46 53.0217 464.904 44.5036 453.101 42.4567C446.833 41.3653 427.544 41.4682 427.113 42.5927ZM485.627 42.7066C485.077 43.2578 483.448 47.1163 482.01 51.2872C479.248 59.2798 474.012 73.5563 470.004 84.022C468.687 87.4543 467.758 90.497 467.935 90.7836C468.477 91.6619 474.934 92.2756 478.296 91.7721C481.42 91.3054 481.497 91.2319 482.99 87.1456L484.51 82.9894L492.714 83.1879L500.918 83.3826L501.829 85.4846C504.388 91.3863 503.901 91.0666 510.719 91.2907L516.94 91.4965L516.541 89.0491C516.324 87.7078 515.678 85.5654 515.111 84.294C513.772 81.2954 507.098 63.1273 503.717 53.2679C502.264 49.0309 500.468 44.6983 499.727 43.6363C498.44 41.7953 498.119 41.7108 492.504 41.7108C488.359 41.7108 486.335 42.0047 485.627 42.7066ZM527.463 44.3235C526.785 44.5587 526.586 49.8651 526.586 67.6583C526.586 90.6476 526.589 90.6881 528.127 91.5112C529.244 92.1065 533.142 92.1947 542.356 91.8346C552.695 91.4304 555.627 91.0849 558.182 89.9605C563.879 87.4579 565.999 84.4116 566.136 78.5393C566.243 74.0487 564.436 70.6569 560.892 68.6725L558.381 67.2724L560.125 65.9606C562.275 64.3437 564.499 59.6289 564.517 56.6413C564.554 51.5297 561.305 47.2523 556.165 45.6391C553.086 44.6726 529.554 43.5959 527.463 44.3235ZM583.743 44.5403C581.342 45.279 580.973 46.047 574.333 64.1232C570.383 74.8792 565.398 87.7262 564.594 89.2218C564.115 90.1222 564.148 90.7726 564.709 91.3312C565.605 92.2241 575.619 92.4409 576.954 91.5957C577.408 91.3054 578.396 89.4974 579.156 87.5792L580.531 84.0845L588.282 83.8861L596.036 83.6876L596.877 86.3371C598.639 91.875 599.038 92.1396 605.619 92.1396C609.001 92.1396 611.733 91.8236 611.991 91.401C612.246 90.9967 611.479 88.237 610.295 85.2715C609.108 82.3059 605.461 72.5016 602.19 63.4838C598.92 54.4659 595.645 46.4916 594.915 45.764C593.337 44.1912 587.105 43.5077 583.743 44.5403ZM613.805 44.7718C613.234 45.4553 613.057 52.3492 613.19 68.7607L613.378 91.7868H626.025L626.209 68.2352L626.394 44.68L624.805 44.2574C621.748 43.4416 614.635 43.7723 613.805 44.7718ZM664.24 44.4485C660.336 45.2385 657.592 47.3221 654.27 52.0258L651.239 56.318L649.875 53.7934C647.817 49.9716 646.154 48.0938 643.171 46.216C640.892 44.7865 639.576 44.5146 634.941 44.5146C631.906 44.5146 629.218 44.7167 628.968 44.9666C628.717 45.2165 630.317 47.9726 632.522 51.0961C634.731 54.216 638.053 59.0483 639.908 61.8375L643.282 66.905L641.81 69.7786C641.003 71.3588 638.717 74.9086 636.737 77.6647C631.117 85.4846 627.784 90.5999 627.784 91.4046C627.784 92.5879 638.783 92.3197 641.423 91.0702C643.47 90.1038 650.269 81.1741 650.269 79.458C650.269 77.7455 651.799 79.3036 654.403 83.6729C658.857 91.1474 660.192 91.7354 673.363 92.0257C680.774 92.191 684.406 92.0183 684.956 91.4708C685.398 91.0335 686.235 89.1924 686.814 87.3808L687.869 84.0845L693.842 83.8714C702.74 83.5517 704.133 83.9485 704.698 86.9435C705.513 91.265 707.057 92.1396 713.872 92.1396C717.817 92.1396 719.845 91.8713 719.845 91.3532C719.845 90.8167 720.188 90.8498 720.922 91.4598C721.744 92.1396 724.782 92.2572 733.746 91.9522C747.684 91.4781 751.844 90.3059 757.153 85.356C762.153 80.6964 763.739 76.5218 763.754 67.9743C763.765 62.1645 763.484 60.3161 762.113 57.1191C759.428 50.8609 755.885 47.7631 748.761 45.4406C744.624 44.0883 725.273 43.346 722.478 44.4301L720.546 45.1797V67.6068C720.546 79.943 720.31 90.034 720.018 90.0303C719.731 90.0303 718.507 87.4285 717.301 84.2535C713.754 74.8976 707.153 57.0823 705.66 52.8269C704.897 50.6588 703.385 47.8219 702.297 46.5247C700.542 44.4264 699.934 44.1618 696.836 44.1618C694.919 44.1618 692.537 44.5991 691.538 45.132C689.237 46.3557 686.077 52.2426 683.392 60.3014C682.242 63.752 679.993 69.8852 678.396 73.9275C676.932 77.6316 675.479 81.3395 674.041 85.0546L672.588 88.825L670.439 84.8342C669.255 82.6367 667.083 79.4764 665.612 77.8117C664.141 76.147 662.234 73.2513 661.379 71.3808C660.52 69.5067 659.712 67.7722 659.58 67.526C659.447 67.2798 662.36 62.6018 666.051 57.1301C672.448 47.6455 673.429 45.7089 672.227 44.9666C671.058 44.25 666.645 43.9597 664.24 44.4485ZM781.862 44.3198C779.122 44.6579 779.185 44.555 774.661 56.8177C766.814 78.091 765.28 82.1332 763.595 85.9844C761.209 91.4304 761.611 92.1396 767.083 92.1286C773.838 92.1139 774.605 91.7354 776.501 87.4579L778.175 83.6876L785.97 83.8861L793.768 84.0845L794.709 86.8149C796.18 91.0923 797.216 91.728 803.193 92.0294C806.128 92.1763 808.824 91.9889 809.203 91.6104C809.653 91.1621 807.596 84.7717 803.263 73.1447C799.616 63.3698 795.933 53.2422 795.077 50.6404C794.178 47.9064 792.883 45.47 792.013 44.8637C790.575 43.8568 787.098 43.6731 781.862 44.3198ZM207.356 53.323C207.065 53.6133 206.829 59.7869 206.829 67.0409V80.2334H210.881C215.918 80.2334 219.027 78.6789 222.179 74.5926C224.491 71.5976 224.524 71.4507 224.288 65.4424C224.074 60.0699 223.835 59.1034 222.29 57.4571C221.324 56.4282 219.742 55.1751 218.776 54.6753C216.678 53.5876 208.105 52.5734 207.356 53.323ZM321.147 53.3855C320.56 53.9698 320.527 62.216 321.103 63.7153C321.604 65.0198 325.306 65.1889 329.285 64.0864C331.125 63.5756 332.26 62.701 333.049 61.176C334.089 59.1733 334.089 58.8021 333.057 56.6413C332.434 55.3478 331.117 53.9771 330.122 53.6023C328.075 52.8269 321.855 52.6763 321.147 53.3855ZM388.975 53.6023C384.141 54.7562 380.454 60.3712 380.428 66.611C380.406 71.0869 383.013 76.4814 386.239 78.6569C390.892 81.7915 397.618 80.0386 400.642 74.9049C402.035 72.5347 402.22 71.3845 402.046 66.1002C401.888 61.2605 401.549 59.6289 400.395 58.0892C397.367 54.047 393.488 52.5256 388.975 53.6023ZM440.306 66.6735L440.498 79.8806L445.236 79.774C453.827 79.5792 457.323 75.7538 457.301 66.5742C457.279 57.4351 454.259 54.1205 445.575 53.7199L440.114 53.4663L440.306 66.6735ZM539.233 58.8719V62.7231H543.647C548.687 62.7231 551.18 61.4516 551.18 58.8829C551.18 55.9615 549.454 55.0171 544.104 55.0171H539.233V58.8719ZM733.355 67.9008L733.547 80.226L738.359 80.2297C743.883 80.2334 746.125 79.2154 748.628 75.5811C749.989 73.5967 750.295 72.2481 750.313 68.1176C750.336 62.7672 749.362 60.0074 746.549 57.4682C745.317 56.3584 743.776 56.0166 739.078 55.8219L733.16 55.5757L733.355 67.9008ZM278.894 64.8618C277.909 67.9596 277.105 70.7965 277.105 71.164C277.105 71.5278 279.004 71.8292 281.324 71.8292C283.643 71.8292 285.538 71.6087 285.538 71.3441C285.538 70.0579 281.667 59.221 281.209 59.221C280.918 59.221 279.875 61.7566 278.894 64.8618ZM491.774 60.0956C491.589 60.577 490.686 63.4139 489.764 66.3979L488.086 71.8292H492.629C495.922 71.8292 497.109 71.5866 496.943 70.9509C496.822 70.4658 495.926 67.6362 494.959 64.6597C493.256 59.4121 492.463 58.2766 491.774 60.0956ZM133.566 61.1025L130.229 61.4002V77.5508L141.681 77.3156C154.83 77.0437 156.302 76.5402 157.718 71.8292C158.805 68.2132 157.688 64.329 154.996 62.374C153.352 61.1797 151.873 60.9592 144.985 60.8894C140.542 60.8416 135.402 60.9371 133.566 61.1025ZM586.114 66.4419C585.066 69.6427 584.211 72.4796 584.211 72.7442C584.211 73.0088 586.143 73.2292 588.503 73.2292C591.637 73.2292 592.71 72.9904 592.474 72.351C592.301 71.8733 591.401 69.0363 590.483 66.0487C589.561 63.0648 588.628 60.6211 588.411 60.6211C588.193 60.6211 587.157 63.2412 586.114 66.4419ZM785.177 61.7309C785.162 62.4695 784.248 65.3579 783.142 68.1507L781.132 73.2292H785.627C788.097 73.2292 790.118 73.1227 790.118 72.9904C790.118 72.2922 786.077 61.2642 785.675 60.86C785.413 60.6027 785.188 60.9923 785.177 61.7309ZM693.547 66.7506C692.552 69.7382 691.733 72.4171 691.733 72.7038C691.733 72.9904 693.665 73.2292 696.025 73.2292C699.167 73.2292 700.229 72.9941 699.985 72.351C699.801 71.8733 698.912 69.1907 698.013 66.3979C697.113 63.6087 696.147 61.323 695.87 61.323C695.59 61.323 694.546 63.7667 693.547 66.7506ZM539.705 72.9941C539.015 73.6776 539.152 79.7189 539.882 80.8654C540.365 81.6261 541.574 81.7474 545.243 81.4056C550.572 80.9095 552.588 79.627 552.588 76.7313C552.588 73.6077 550.664 72.5274 545.096 72.5274C542.386 72.5274 539.959 72.7368 539.705 72.9941ZM193.477 98.4418V102.642H809.093V94.2379H193.477V98.4418ZM475.417 106.118C473.518 108.676 473.51 108.948 475.332 108.948C476.866 108.948 481.608 105.711 481.608 104.66C481.608 104.321 480.56 104.046 479.281 104.046C477.518 104.046 476.582 104.546 475.417 106.118ZM221.593 112.119C216.014 114.633 213.65 118.48 213.65 125.054C213.65 130.342 214.768 132.966 218.359 136.108C222.537 139.765 230.579 140.011 235.708 136.645C239.366 134.245 240.922 130.647 240.878 124.705C240.833 118.969 239.148 115.526 235.192 113.086C231.943 111.087 224.985 110.594 221.593 112.119ZM423.285 112.119C417.703 114.633 415.343 118.48 415.343 125.054C415.343 130.342 416.46 132.966 420.052 136.108C424.226 139.765 432.268 140.011 437.4 136.645C441.058 134.245 442.614 130.647 442.57 124.705C442.526 118.969 440.841 115.526 436.884 113.086C433.636 111.087 426.678 110.594 423.285 112.119ZM494.406 111.803C490.653 112.942 486.799 117.326 485.907 121.479C483.628 132.073 490.822 139.963 501.751 138.846C507.142 138.295 508.315 137.449 508.315 134.116V131.324L506.239 132.389C503.838 133.631 498.322 133.8 496.261 132.702C493.4 131.177 491.862 124.092 493.639 120.63C495.041 117.892 497.227 116.683 500.793 116.665C502.647 116.658 505.1 117.132 506.239 117.72L508.315 118.789V115.952C508.315 113.512 508.042 113.005 506.379 112.332C503.702 111.248 497.183 110.958 494.406 111.803ZM604.038 111.803C600.28 112.942 596.431 117.326 595.538 121.479C593.256 132.073 600.454 139.963 611.383 138.846C616.77 138.295 617.942 137.449 617.942 134.116V131.324L615.87 132.389C613.466 133.631 607.954 133.8 605.892 132.702C603.031 131.177 601.493 124.092 603.267 120.63C604.672 117.892 606.858 116.683 610.424 116.665C612.279 116.658 614.731 117.132 615.87 117.72L617.942 118.789V115.952C617.942 113.512 617.673 113.005 616.01 112.332C613.333 111.248 606.814 110.958 604.038 111.803ZM630.597 112.119C625.018 114.633 622.655 118.48 622.655 125.054C622.655 130.342 623.776 132.966 627.367 136.108C631.541 139.765 639.583 140.011 644.716 136.645C648.37 134.245 649.926 130.647 649.882 124.705C649.841 118.969 648.156 115.526 644.196 113.086C640.951 111.087 633.99 110.594 630.597 112.119ZM743.182 111.803C739.428 112.942 735.575 117.326 734.683 121.479C732.404 132.073 739.598 139.963 750.527 138.846C755.918 138.295 757.091 137.449 757.091 134.116V131.324L755.018 132.389C752.614 133.631 747.098 133.8 745.037 132.702C742.179 131.177 740.638 124.092 742.415 120.63C743.82 117.892 746.003 116.683 749.572 116.665C751.423 116.658 753.875 117.132 755.018 117.72L757.091 118.789V115.952C757.091 113.512 756.818 113.005 755.159 112.332C752.478 111.248 745.962 110.958 743.182 111.803ZM246.184 125.021V138.361H252.467L252.662 129.611L252.861 120.862L257.43 129.6L261.995 138.339L270.077 138.361V111.748H263.049L263.038 120.329L263.027 128.906L254.06 112.097L246.184 111.678V125.021ZM277.105 125.054V138.515L285.011 138.251C294.063 137.946 297.249 136.696 300.31 132.25C302.799 128.626 302.784 121.641 300.28 117.907C297.268 113.42 294.1 112.163 285.011 111.862L277.105 111.597V125.054ZM307.323 125.054V138.361H326.298V132.76H314.351V127.156H324.893V121.552H314.351V117.352H325.597V111.748H307.323V125.054ZM351.265 112.942C350.985 113.633 349.709 117.036 348.426 120.501C346.94 124.533 345.446 128.56 343.945 132.584L341.796 138.361H345.542C349.163 138.361 349.307 138.287 349.941 136.086L350.594 133.811L355.863 133.609L361.136 133.407L362.035 135.884C362.898 138.265 363.068 138.361 366.401 138.361C368.308 138.361 369.853 138.126 369.83 137.835C369.808 137.549 367.67 131.64 365.077 124.705L360.361 112.097L356.066 111.891C352.474 111.719 351.689 111.891 351.265 112.942ZM386.737 125.021V138.361H393.02L393.411 120.862L402.548 138.339L410.631 138.361V111.748H403.603L403.591 120.329L403.58 128.906L399.097 120.501L394.609 112.097L390.671 111.888L386.737 111.678V125.021ZM445.066 114.548V117.352H454.2V138.361H461.228V117.418L465.619 117.209L470.015 116.999L470.232 114.376L470.45 111.748H445.066V114.548ZM473.175 125.054V138.361H480.203V111.748H473.175V125.054ZM513.934 125.054V138.361H520.962V111.748H513.934V125.054ZM533.278 112.942C532.998 113.633 531.722 117.036 530.442 120.501C528.953 124.533 527.459 128.56 525.962 132.584L523.809 138.361H527.555C531.18 138.361 531.324 138.287 531.954 136.086L532.607 133.811L537.88 133.609L543.149 133.407L544.049 135.884C544.911 138.265 545.085 138.361 548.418 138.361C550.324 138.361 551.866 138.126 551.844 137.835C551.822 137.549 549.683 131.64 547.091 124.705L542.375 112.097L538.083 111.891C534.491 111.719 533.706 111.891 533.278 112.942ZM574.742 112.942C574.462 113.633 573.186 117.036 571.906 120.501C570.417 124.533 568.923 128.56 567.426 132.584L565.273 138.361H569.019C572.64 138.361 572.784 138.287 573.418 136.086L574.071 133.811L579.34 133.609L584.613 133.407L585.513 135.884C586.375 138.265 586.545 138.361 589.878 138.361C591.785 138.361 593.33 138.126 593.308 137.835C593.285 137.549 591.147 131.64 588.555 124.705L583.838 112.097L579.543 111.891C575.951 111.719 575.166 111.891 574.742 112.942ZM655.192 125.021V138.361H661.471L661.67 129.611L661.866 120.862L671.003 138.339L679.086 138.361V111.748H672.057L672.046 120.329L672.035 128.906L667.548 120.501L663.064 112.097L659.126 111.888L655.192 111.678V125.021ZM682.596 114.548V117.352H691.733V138.361H698.761V117.418L707.544 116.999L707.762 114.376L707.983 111.748H682.596V114.548ZM710.708 125.054V138.361H729.683V132.76H717.736V127.156H728.278V121.552H717.736V117.352H728.979V111.748H710.708V125.054ZM762.714 125.054V138.361H781.685V132.76H769.738V127.156H780.28V121.552H769.738V117.352H780.984V111.748H762.714V125.054ZM222.939 118.458C221.479 120.005 221.235 120.95 221.235 125.054C221.235 129.159 221.479 130.104 222.939 131.651C224.635 133.448 227.729 134.025 230.339 133.025C234.539 131.419 234.539 118.69 230.339 117.088C227.729 116.088 224.635 116.661 222.939 118.458ZM424.631 118.458C423.171 120.005 422.928 120.95 422.928 125.054C422.928 129.159 423.171 130.104 424.631 131.651C426.324 133.448 429.421 134.025 432.032 133.025C436.228 131.419 436.228 118.69 432.032 117.088C429.421 116.088 426.324 116.661 424.631 118.458ZM631.947 118.458C630.487 120.005 630.243 120.95 630.243 125.054C630.243 129.159 630.487 130.104 631.947 131.651C633.639 133.448 636.737 134.025 639.347 133.025C643.543 131.419 643.543 118.69 639.347 117.088C636.737 116.088 633.639 116.661 631.947 118.458ZM284.134 125.054V132.937L287.78 132.588C292.662 132.121 294.676 129.92 294.676 125.054C294.676 120.189 292.662 117.988 287.78 117.521L284.134 117.172V125.054ZM355.022 121.38C354.436 122.89 353.868 124.408 353.315 125.929L352.364 128.557H355.922C358.473 128.557 359.388 128.31 359.156 127.682C358.975 127.201 358.285 125.15 357.618 123.129C356.951 121.108 356.265 119.454 356.091 119.454C355.922 119.454 355.439 120.318 355.022 121.38ZM537.039 121.38C536.453 122.89 535.881 124.408 535.328 125.929L534.377 128.557H537.935C540.487 128.557 541.401 128.31 541.169 127.682C540.992 127.201 540.299 125.15 539.631 123.129C538.964 121.108 538.278 119.454 538.108 119.454C537.935 119.454 537.456 120.318 537.039 121.38ZM578.499 121.38C577.913 122.89 577.345 124.408 576.792 125.929L575.841 128.557H579.399C581.951 128.557 582.865 128.31 582.633 127.682C582.452 127.201 581.763 125.15 581.095 123.129C580.428 121.108 579.742 119.454 579.569 119.454C579.399 119.454 578.916 120.318 578.499 121.38Z" fill="black"></path>
</svg>