<svg width="696" height="224" viewBox="0 0 696 224" fill="none" xmlns="http://www.w3.org/2000/svg">
<g clip-path="url(#clip0_6_15)">
<path d="M28.71 120.45C28.71 123.67 28.71 126.66 28.69 129.41C28.67 132.18 28.62 134.65 28.56 136.8C28.49 138.97 28.38 140.75 28.21 142.17C28.09 143.14 27.93 144.02 27.73 144.79C27.53 145.57 27.24 146.21 26.86 146.71C26.49 147.21 25.97 147.54 25.31 147.68C24.85 147.78 24.34 147.88 23.81 147.96C23.28 148.03 22.78 148.08 22.31 148.08C22.01 148.08 21.81 148.14 21.69 148.26L21.51 148.68C21.51 148.98 21.64 149.18 21.89 149.3C22.16 149.44 22.56 149.48 23.11 149.48C23.88 149.46 24.79 149.43 25.83 149.38C26.86 149.32 27.9 149.28 28.92 149.28C29.99 149.23 30.91 149.2 31.64 149.2C32.38 149.18 32.81 149.18 32.93 149.18C33.67 149.18 34.67 149.2 35.93 149.24C37.2 149.29 38.8 149.37 40.74 149.47C42.69 149.52 45.06 149.59 47.85 149.65C50.65 149.72 53.92 149.76 57.66 149.76C58.95 149.78 59.95 149.74 60.65 149.66C61.35 149.58 61.87 149.36 62.22 148.99C62.57 148.62 62.85 148.01 63.07 147.16C63.17 146.73 63.29 146.14 63.4 145.42C63.52 144.68 63.63 143.9 63.74 143.07C63.86 142.22 63.97 141.4 64.06 140.6C64.16 139.82 64.23 139.13 64.29 138.56C64.34 137.99 64.37 137.61 64.37 137.44C64.39 137.07 64.35 136.74 64.3 136.42C64.23 136.12 64.05 135.95 63.77 135.94L63.2 136.27C63.07 136.5 62.97 136.89 62.87 137.44C62.53 139.47 62.02 141.04 61.33 142.18C60.63 143.3 59.64 144.13 58.36 144.65C57.47 145.02 56.44 145.27 55.29 145.42C54.14 145.59 52.97 145.69 51.82 145.72C50.67 145.75 49.63 145.75 48.75 145.75C46.32 145.77 44.35 145.67 42.84 145.43C41.32 145.21 40.17 144.81 39.37 144.23C38.57 143.65 38.02 142.81 37.7 141.74C37.38 140.66 37.18 139.25 37.13 137.53C37.11 137.08 37.1 136.33 37.1 135.26C37.08 134.21 37.08 132.97 37.08 131.57C37.1 130.17 37.1 128.75 37.1 127.3C37.12 125.85 37.12 124.51 37.12 123.3C37.14 122.08 37.14 121.11 37.14 120.41V111.6L37.31 111.1L37.84 110.9C38.21 110.9 38.82 110.9 39.73 110.92C40.61 110.94 41.67 110.97 42.83 110.98C44.02 111.01 45.22 111.05 46.44 111.1C47.67 111.13 48.79 111.18 49.79 111.24C50.81 111.29 51.59 111.34 52.16 111.41C53.44 111.54 54.44 111.81 55.16 112.18C55.86 112.56 56.38 112.98 56.71 113.47C57.03 113.95 57.25 114.44 57.36 114.92C57.56 115.57 57.68 116.15 57.71 116.69C57.76 117.22 57.78 117.72 57.76 118.23L57.93 118.86L58.46 119.12L58.96 118.8C59.06 118.6 59.11 118.35 59.13 118.07C59.16 117.77 59.16 117.49 59.16 117.22C59.16 117.04 59.18 116.69 59.19 116.2C59.21 115.72 59.24 115.15 59.29 114.5C59.32 113.87 59.36 113.22 59.41 112.56C59.46 111.91 59.51 111.33 59.56 110.81C59.73 109.18 59.9 107.89 60.08 106.99C60.25 106.09 60.35 105.49 60.36 105.2C60.36 104.9 60.31 104.7 60.23 104.57L59.86 104.4L59.23 104.75C59 104.98 58.71 105.3 58.36 105.7C57.93 106.18 57.32 106.52 56.57 106.7C55.82 106.88 54.85 107.02 53.65 107.1C53.25 107.13 52.61 107.17 51.76 107.18C50.89 107.2 49.91 107.23 48.79 107.23C47.65 107.25 46.5 107.26 45.32 107.26C44.12 107.28 42.98 107.28 41.92 107.29H37.73L37.24 107.06C37.16 106.89 37.13 106.64 37.13 106.29V78.6499C37.13 78.2999 37.18 78.0499 37.28 77.8799L37.73 77.6499C37.98 77.6499 38.53 77.6499 39.41 77.6699C40.3 77.6699 41.33 77.6899 42.55 77.6999C43.75 77.7199 44.97 77.7299 46.2 77.7499C47.42 77.7799 48.52 77.7999 49.47 77.8299C50.42 77.8599 51.07 77.8899 51.44 77.9499C53.23 78.1499 54.58 78.4099 55.53 78.7299C56.48 79.0599 57.17 79.4499 57.6 79.8799C58.03 80.3299 58.35 80.8099 58.55 81.3499C58.72 81.7499 58.83 82.1999 58.93 82.6499C59.01 83.1199 59.06 83.5699 59.1 83.9699C59.13 84.3899 59.15 84.7099 59.15 84.9499C59.15 85.3499 59.2 85.6699 59.33 85.8999C59.45 86.1299 59.65 86.2499 59.95 86.2499L60.42 85.8799L60.65 85.1399C60.7 84.8199 60.75 84.3599 60.8 83.7399C60.85 83.1199 60.9 82.4699 60.93 81.7499C60.98 81.0499 61.01 80.3999 61.05 79.8099C61.1 79.2299 61.13 78.7899 61.15 78.5299C61.32 77.1399 61.48 76.1099 61.67 75.3899C61.84 74.6699 61.94 74.1499 61.95 73.8199L61.87 73.1899L61.55 72.9199L60.85 73.1399L60.15 73.4199C59.73 73.5199 59.17 73.6199 58.41 73.6999C57.66 73.7999 56.81 73.8699 55.84 73.9199C55.49 73.9399 54.84 73.9499 53.89 73.9499C52.92 73.9699 51.77 73.9699 50.42 73.9799C49.05 73.9799 47.62 73.9999 46.08 73.9999H41.51C40.01 74.0199 38.62 74.0199 37.37 74.0199H32.91L28.8 73.8199C27.68 73.7699 26.5 73.7399 25.23 73.7399C23.98 73.7199 22.76 73.7199 21.59 73.7199C21.04 73.7199 20.64 73.7699 20.37 73.8899C20.12 74.0199 19.99 74.2199 19.99 74.5199L20.24 74.9699L20.79 75.1199C21.11 75.1199 21.48 75.1199 21.89 75.1499C22.32 75.1699 22.74 75.1999 23.16 75.2499C23.58 75.2799 23.91 75.3499 24.19 75.4199C25.28 75.6399 26.13 75.9899 26.73 76.4499C27.35 76.8999 27.76 77.5199 28.03 78.2899C28.28 79.0399 28.45 79.9899 28.5 81.1299C28.53 81.7499 28.56 82.4099 28.6 83.1199C28.62 83.7999 28.65 84.6599 28.67 85.6199C28.67 86.5999 28.69 87.8399 28.69 89.3299C28.71 90.7999 28.71 92.6399 28.71 94.8199V120.39V120.45ZM76.17 139.48L94.29 110.84L78.27 83.8999C77.52 82.5999 76.75 81.4099 75.98 80.3499C75.21 79.2999 74.38 78.3999 73.48 77.6299C72.59 76.8799 71.59 76.2999 70.46 75.8999C69.91 75.7299 69.36 75.5999 68.79 75.4999C68.22 75.3799 67.71 75.3199 67.25 75.2699C66.8 75.2199 66.47 75.2099 66.25 75.2099C65.95 75.2099 65.73 75.1399 65.58 75.0099L65.35 74.5099L65.72 73.9799C65.97 73.8599 66.42 73.8099 67.06 73.8099C67.64 73.8099 68.38 73.8099 69.28 73.8399C70.18 73.8599 71.15 73.8699 72.17 73.9099C73.19 73.9399 74.17 73.9799 75.12 74.0099C76.06 74.0299 76.86 74.0599 77.52 74.0799C78.17 74.0999 78.59 74.1099 78.77 74.1099C79.02 74.1099 79.47 74.0899 80.14 74.0599C80.82 74.0299 81.63 73.9899 82.54 73.9599C83.46 73.9299 84.41 73.8799 85.39 73.8599C86.39 73.8299 87.31 73.8099 88.18 73.8099C88.86 73.8099 89.33 73.8599 89.56 73.9799L89.88 74.5099L89.66 75.0399C89.51 75.1599 89.28 75.2099 88.98 75.2099C88.66 75.1899 88.23 75.2099 87.71 75.2399C87.17 75.2699 86.71 75.3599 86.28 75.5099C85.83 75.6599 85.53 75.8899 85.34 76.2099C85.16 76.5099 85.07 76.8399 85.07 77.2099C85.07 77.7099 85.17 78.2499 85.36 78.8299C85.53 79.3999 85.78 79.9499 86.08 80.5099C87.48 83.1299 88.88 85.7299 90.3 88.3199C91.72 90.8899 93.19 93.5099 94.7 96.1599C96.24 98.8099 97.87 101.59 99.59 104.44C100.11 103.7 100.79 102.67 101.66 101.35C102.51 100.01 103.48 98.5299 104.51 96.8899C105.56 95.2399 106.63 93.5499 107.7 91.8299C108.77 90.1299 109.79 88.4899 110.72 86.9699C111.66 85.4499 112.44 84.1499 113.07 83.0599C113.72 81.9899 114.12 81.2599 114.3 80.8899C114.65 80.1599 114.9 79.5199 115.07 78.9699C115.22 78.4199 115.3 77.8699 115.3 77.2799C115.3 76.9099 115.13 76.5599 114.84 76.2299C114.52 75.8999 114.12 75.6499 113.6 75.4799C113.08 75.3299 112.53 75.2499 111.95 75.2099C111.38 75.1799 110.93 75.1599 110.6 75.1799C110.3 75.1799 110.08 75.1299 109.94 75.0099L109.71 74.4799L110.11 73.9799C110.38 73.8499 110.81 73.7799 111.41 73.7799C112.71 73.7799 113.96 73.8099 115.21 73.8599C116.44 73.8899 117.53 73.9499 118.45 73.9999C119.39 74.0499 120 74.0799 120.32 74.0799C120.66 74.0799 121.26 74.0499 122.14 73.9999C123.04 73.9499 124.08 73.8999 125.25 73.8599C126.42 73.8099 127.59 73.7799 128.74 73.7799C129.29 73.7799 129.69 73.8499 129.96 73.9799L130.34 74.4799L130.05 74.9799C129.85 75.1099 129.59 75.1799 129.23 75.1799C128.87 75.1799 128.36 75.2099 127.73 75.2799C127.11 75.3499 126.51 75.4799 125.93 75.6799C124.98 75.9799 124.1 76.4999 123.3 77.2199C122.48 77.9599 121.68 78.8699 120.88 79.9699C120.06 81.0699 119.18 82.3599 118.23 83.7899L102.11 108.02C102.39 108.49 102.94 109.41 103.76 110.79C104.59 112.18 105.58 113.84 106.76 115.83C107.93 117.82 109.19 119.95 110.56 122.22C111.91 124.5 113.27 126.77 114.63 129.04C115.98 131.33 117.27 133.43 118.45 135.4C119.63 137.35 120.65 139 121.49 140.34C122.34 141.68 122.91 142.54 123.23 142.96C123.75 143.66 124.28 144.3 124.83 144.86C125.37 145.43 125.98 145.93 126.67 146.36C127.35 146.8 128.19 147.16 129.14 147.46C129.86 147.66 130.54 147.81 131.19 147.91C131.84 148.01 132.33 148.06 132.64 148.06L133.22 148.21L133.44 148.66L133.07 149.24C132.84 149.39 132.49 149.46 132.04 149.46C130.02 149.46 128.1 149.46 126.32 149.44C124.52 149.44 122.78 149.42 121.1 149.39C119.41 149.37 117.71 149.32 116.02 149.26C115.17 149.23 114.5 149.18 114.07 149.13C113.62 149.06 113.3 148.98 113.15 148.86L112.92 148.46L113.07 147.94L113.52 147.66L114.07 147.21C114.25 146.96 114.37 146.64 114.4 146.26C114.43 145.86 114.3 145.39 114.02 144.86C111.31 139.95 108.51 135.01 105.64 130.06C102.75 125.09 99.8 120.08 96.79 115.02L81.17 141.56C80.72 142.38 80.39 143.19 80.19 143.99C79.97 144.78 79.87 145.44 79.87 145.96C79.89 146.46 80.04 146.88 80.34 147.21C80.64 147.55 81.01 147.76 81.48 147.86C81.8 147.91 82.11 147.96 82.46 148C82.81 148.05 83.11 148.07 83.38 148.07L83.96 148.27L84.18 148.77L83.85 149.31C83.63 149.43 83.33 149.48 82.98 149.48C82.36 149.48 81.56 149.46 80.59 149.43C79.62 149.4 78.62 149.36 77.6 149.33C76.58 149.3 75.68 149.26 74.91 149.23C74.13 149.2 73.61 149.18 73.36 149.18C73.13 149.18 72.67 149.2 72.02 149.23C71.37 149.26 70.59 149.29 69.7 149.33C68.82 149.36 67.88 149.4 66.93 149.43C65.98 149.46 65.08 149.48 64.24 149.48C63.86 149.48 63.59 149.41 63.44 149.28L63.24 148.78L63.46 148.28L64.04 148.08C64.46 148.08 65.01 148.05 65.67 147.98C66.36 147.91 67.07 147.78 67.84 147.58C68.82 147.33 69.76 146.88 70.63 146.26C71.48 145.63 72.37 144.76 73.25 143.66C74.14 142.56 75.1 141.15 76.16 139.47M139.36 120.45C139.36 123.67 139.36 126.66 139.34 129.43C139.32 132.18 139.28 134.65 139.21 136.81C139.14 138.98 139.03 140.76 138.86 142.18C138.74 143.15 138.58 144.03 138.38 144.82C138.18 145.59 137.9 146.24 137.51 146.72C137.14 147.22 136.62 147.55 135.96 147.69C135.49 147.79 134.99 147.89 134.46 147.97C133.92 148.04 133.42 148.09 132.96 148.09C132.66 148.09 132.46 148.15 132.34 148.27L132.16 148.69C132.16 148.99 132.3 149.19 132.54 149.31C132.81 149.45 133.21 149.49 133.76 149.49C134.54 149.49 135.44 149.47 136.5 149.44C137.53 149.41 138.57 149.37 139.59 149.34C140.61 149.31 141.48 149.27 142.18 149.24C142.88 149.21 143.28 149.19 143.38 149.19C143.53 149.19 143.98 149.21 144.75 149.24C145.5 149.27 146.49 149.3 147.67 149.34C148.84 149.37 150.12 149.41 151.52 149.44C152.9 149.47 154.31 149.49 155.69 149.49C156.24 149.49 156.64 149.42 156.91 149.27L157.29 148.69L157.12 148.27C156.99 148.15 156.79 148.09 156.49 148.09C156.17 148.09 155.75 148.07 155.24 148.04C154.71 147.99 154.16 147.94 153.57 147.89C153 147.83 152.47 147.76 151.98 147.69C151 147.55 150.23 147.22 149.69 146.72C149.16 146.24 148.79 145.58 148.55 144.82C148.32 144.04 148.15 143.15 148.07 142.18C147.9 140.76 147.79 138.98 147.72 136.81C147.66 134.66 147.6 132.19 147.59 129.43C147.57 126.66 147.57 123.67 147.57 120.45V79.2999C147.57 78.7999 147.62 78.3799 147.74 78.0499C147.87 77.7099 148.07 77.4999 148.37 77.3999C148.84 77.1999 149.45 77.0499 150.22 76.9499C150.99 76.8499 151.81 76.7999 152.67 76.7999C153.25 76.7799 154.05 76.7799 155.04 76.8199C156.02 76.8499 157.16 76.9999 158.41 77.2699C159.66 77.5499 160.96 78.0399 162.33 78.7399C163.7 79.4599 165.05 80.4799 166.39 81.8099C167.71 83.1799 168.74 84.5799 169.51 86.0299C170.26 87.4799 170.83 88.9199 171.18 90.2999C171.55 91.6999 171.76 92.9899 171.87 94.1899C171.97 95.3699 172.02 96.3899 172 97.2299C171.98 99.5499 171.55 101.69 170.66 103.67C169.78 105.64 168.56 107.36 166.97 108.84C165.4 110.33 163.57 111.46 161.48 112.3C159.37 113.12 157.11 113.53 154.67 113.55C153.63 113.53 152.92 113.58 152.53 113.7C152.13 113.82 151.95 114.07 151.96 114.45L152.33 114.99L153.07 115.16C153.35 115.21 153.7 115.24 154.12 115.24C154.55 115.26 154.9 115.26 155.17 115.26C158.74 115.24 162.03 114.68 165.02 113.54C168.01 112.39 170.61 110.77 172.83 108.67C175.03 106.56 176.74 104.06 177.95 101.14C179.17 98.2299 179.78 94.9999 179.8 91.4299C179.78 89.6399 179.51 87.9899 179 86.4399C178.48 84.8999 177.83 83.5399 177.08 82.3499C176.31 81.1699 175.54 80.2099 174.79 79.5199C174.41 79.1199 173.79 78.6199 172.97 77.9799C172.14 77.3599 171 76.7299 169.57 76.0899C168.15 75.4599 166.33 74.9199 164.13 74.4899C161.94 74.0599 159.29 73.8199 156.17 73.7999C155 73.7999 153.8 73.8199 152.57 73.8499C151.34 73.8699 150.14 73.9199 148.97 73.9499C147.8 73.9799 146.75 74.0199 145.82 74.0499C144.89 74.0799 144.14 74.0999 143.57 74.0999C143.35 74.0999 142.87 74.0799 142.1 74.0499C141.33 74.0199 140.4 73.9799 139.3 73.9499C138.2 73.9199 137.05 73.8699 135.81 73.8499C134.59 73.8199 133.41 73.7999 132.26 73.7999C131.71 73.7999 131.31 73.8499 131.04 73.9699C130.79 74.0999 130.66 74.2999 130.66 74.5999L130.91 75.0499L131.46 75.1999C131.78 75.1999 132.14 75.1999 132.56 75.2299C132.99 75.2499 133.41 75.2799 133.83 75.3299C134.25 75.3599 134.58 75.4299 134.86 75.4999C135.94 75.7199 136.8 76.0699 137.4 76.5299C138.02 76.9799 138.43 77.5999 138.7 78.3699C138.95 79.1199 139.12 80.0699 139.17 81.2099C139.2 81.8299 139.24 82.4899 139.27 83.1799C139.29 83.8799 139.32 84.7299 139.34 85.6999C139.34 86.6799 139.36 87.9199 139.36 89.4099C139.38 90.8799 139.38 92.7199 139.38 94.8999V120.47L139.36 120.45ZM190.42 120.45C190.42 123.67 190.42 126.66 190.4 129.43C190.38 132.18 190.33 134.65 190.26 136.81C190.2 138.98 190.08 140.76 189.91 142.18C189.79 143.15 189.62 144.03 189.42 144.82C189.22 145.59 188.94 146.24 188.55 146.72C188.18 147.22 187.67 147.55 187 147.69C186.53 147.79 186.03 147.89 185.5 147.97C184.97 148.04 184.47 148.09 184 148.09C183.7 148.09 183.5 148.15 183.38 148.27L183.2 148.69C183.2 148.99 183.33 149.19 183.58 149.31C183.85 149.45 184.25 149.49 184.8 149.49C185.58 149.49 186.49 149.47 187.52 149.44C188.57 149.41 189.59 149.37 190.59 149.34C191.61 149.31 192.44 149.27 193.13 149.24C193.8 149.21 194.16 149.19 194.22 149.19C194.37 149.19 194.82 149.21 195.59 149.24C196.34 149.27 197.33 149.3 198.51 149.34C199.68 149.37 200.96 149.41 202.37 149.44C203.75 149.47 205.16 149.49 206.54 149.49C207.09 149.49 207.49 149.42 207.76 149.27L208.14 148.69L207.97 148.27C207.83 148.15 207.63 148.09 207.33 148.09C207.03 148.09 206.6 148.07 206.08 148.04C205.54 147.99 204.99 147.94 204.41 147.89C203.84 147.83 203.31 147.76 202.82 147.69C201.84 147.55 201.07 147.22 200.53 146.72C200 146.24 199.63 145.58 199.4 144.82C199.17 144.04 199 143.15 198.92 142.18C198.75 140.76 198.63 138.98 198.57 136.81C198.5 134.66 198.45 132.19 198.43 129.43C198.41 126.66 198.41 123.67 198.41 120.45V118.05L198.58 117.47L199.12 117.25L211.43 117.45C211.73 117.45 211.97 117.5 212.17 117.6L212.74 118.05C213.26 118.72 213.91 119.59 214.69 120.69C215.49 121.79 216.39 123.01 217.38 124.38C218.36 125.73 219.38 127.15 220.47 128.61C221.54 130.06 222.61 131.49 223.66 132.88C225.54 135.39 227.25 137.6 228.75 139.52C230.25 141.44 231.69 143.07 233.02 144.43C234.37 145.78 235.76 146.84 237.18 147.6C238.03 148.07 238.93 148.43 239.87 148.72C240.82 149 241.92 149.21 243.21 149.32C244.5 149.44 246.05 149.5 247.9 149.5H255.01C255.89 149.5 256.53 149.45 256.89 149.32C257.24 149.21 257.43 149 257.41 148.7L257.14 148.28L256.51 148.1C256.21 148.1 255.71 148.1 255.04 148.07C254.38 148.04 253.56 147.95 252.61 147.8C251.78 147.7 250.74 147.43 249.54 147.02C248.32 146.62 246.95 145.92 245.4 144.92C243.86 143.92 242.2 142.48 240.4 140.6C237.51 137.48 234.34 133.74 230.89 129.4C227.45 125.06 223.68 120.24 219.58 114.97C222.57 112.2 224.95 109.53 226.72 106.92C228.51 104.32 229.78 101.78 230.56 99.2799C231.33 96.7699 231.71 94.3099 231.7 91.8399C231.68 90.0999 231.45 88.5199 230.97 87.0499C230.5 85.5799 229.92 84.2799 229.18 83.1099C228.46 81.9599 227.71 80.9599 226.93 80.1399C226.15 79.3099 225.45 78.6699 224.79 78.2199C223 76.9699 221.1 76.0199 219.08 75.3799C217.06 74.7499 214.97 74.3099 212.84 74.1099C210.7 73.8899 208.58 73.7899 206.47 73.8099C205.84 73.8099 205.07 73.8299 204.15 73.8399C203.25 73.8599 202.3 73.8699 201.3 73.9099C200.28 73.9399 199.33 73.9799 198.39 74.0099C197.47 74.0299 196.67 74.0599 196 74.0799C195.33 74.0999 194.88 74.1099 194.65 74.1099C194.5 74.1099 194.07 74.0899 193.3 74.0599C192.55 74.0299 191.62 73.9899 190.5 73.9599C189.38 73.9299 188.2 73.8799 186.95 73.8599C185.7 73.8299 184.5 73.8099 183.35 73.8099C182.8 73.8099 182.4 73.8599 182.13 73.9799C181.88 74.1099 181.75 74.3099 181.75 74.6099L182 75.0599L182.55 75.2099C182.87 75.2099 183.23 75.2099 183.65 75.2399C184.08 75.2599 184.5 75.2899 184.92 75.3399C185.34 75.3699 185.67 75.4399 185.95 75.5099C187.04 75.7299 187.89 76.0799 188.49 76.5399C189.11 76.9899 189.52 77.6099 189.79 78.3799C190.04 79.1499 190.21 80.0799 190.26 81.2199C190.29 81.8399 190.33 82.4999 190.36 83.2099C190.38 83.8899 190.41 84.7499 190.42 85.7099C190.42 86.6899 190.44 87.9299 190.44 89.4199C190.46 90.8899 190.46 92.7299 190.46 94.9099V120.48L190.42 120.45ZM198.43 78.7999C198.43 78.4999 198.5 78.2499 198.65 78.0499L199.23 77.5999C199.58 77.4999 200.08 77.3999 200.75 77.2999C201.42 77.2199 202.2 77.1499 203.09 77.0799C203.99 77.0299 204.94 76.9999 205.94 76.9999C209.53 77.0199 212.62 77.8199 215.2 79.3999C217.77 80.9999 219.76 83.2899 221.16 86.2599C222.55 89.2499 223.25 92.8299 223.26 97.0199C223.26 99.5599 222.98 101.84 222.46 103.86C221.93 105.88 221.21 107.61 220.29 109.07C219.39 110.5 218.34 111.64 217.15 112.44C215.98 113.22 214.75 113.74 213.43 113.99C212.13 114.24 210.86 114.36 209.64 114.34C208.15 114.34 206.7 114.27 205.29 114.12C203.89 113.99 202.63 113.79 201.55 113.55C200.45 113.3 199.65 113.03 199.13 112.73L198.59 112.19L198.42 111.53V78.7899L198.43 78.7999Z" fill="black"></path>
<path d="M254.21 120.45C254.21 123.67 254.21 126.66 254.19 129.41C254.17 132.18 254.13 134.65 254.06 136.81C253.99 138.98 253.88 140.76 253.71 142.18C253.59 143.15 253.43 144.03 253.23 144.8C253.03 145.58 252.74 146.22 252.36 146.72C251.99 147.22 251.47 147.56 250.81 147.69C250.35 147.79 249.84 147.89 249.31 147.97C248.78 148.04 248.28 148.09 247.81 148.09C247.51 148.09 247.31 148.16 247.19 148.27L247.01 148.69C247.01 148.99 247.14 149.19 247.39 149.31C247.66 149.44 248.06 149.49 248.61 149.49C249.38 149.47 250.29 149.44 251.33 149.39C252.36 149.32 253.4 149.29 254.42 149.29C255.49 149.24 256.41 149.21 257.14 149.21C257.88 149.19 258.31 149.19 258.43 149.19C259.17 149.19 260.17 149.21 261.43 149.25C262.7 149.3 264.3 149.39 266.24 149.49C268.19 149.54 270.56 149.6 273.35 149.67C276.15 149.74 279.42 149.79 283.16 149.79C284.45 149.81 285.45 149.77 286.15 149.69C286.85 149.61 287.37 149.39 287.72 149.03C288.07 148.66 288.35 148.05 288.57 147.19C288.67 146.76 288.79 146.17 288.9 145.45C289.02 144.71 289.13 143.93 289.24 143.1C289.36 142.25 289.47 141.43 289.56 140.63C289.66 139.85 289.73 139.16 289.79 138.6C289.84 138.03 289.87 137.65 289.87 137.48C289.89 137.11 289.85 136.78 289.8 136.46C289.73 136.16 289.55 135.99 289.27 135.98L288.7 136.32C288.57 136.55 288.47 136.94 288.37 137.49C288.03 139.53 287.52 141.1 286.83 142.23C286.13 143.35 285.14 144.18 283.86 144.7C282.98 145.07 281.94 145.32 280.79 145.47C279.64 145.64 278.47 145.74 277.32 145.77C276.17 145.8 275.13 145.8 274.25 145.8C271.81 145.82 269.84 145.72 268.34 145.49C266.82 145.27 265.67 144.87 264.87 144.29C264.07 143.71 263.52 142.87 263.2 141.8C262.88 140.72 262.68 139.31 262.63 137.6C262.61 137.15 262.6 136.4 262.6 135.33C262.58 134.28 262.58 133.04 262.58 131.64C262.6 130.24 262.6 128.82 262.6 127.37C262.62 125.92 262.62 124.58 262.62 123.36C262.64 122.14 262.64 121.17 262.64 120.47V111.66L262.81 111.16L263.34 110.96C263.71 110.96 264.32 110.96 265.23 110.98C266.11 111 267.17 111.03 268.34 111.05C269.52 111.08 270.73 111.12 271.94 111.17C273.17 111.2 274.29 111.25 275.29 111.3C276.31 111.35 277.09 111.4 277.66 111.47C278.94 111.61 279.94 111.87 280.66 112.24C281.36 112.62 281.88 113.04 282.21 113.52C282.53 114 282.75 114.49 282.86 114.97C283.06 115.62 283.17 116.21 283.21 116.74C283.26 117.28 283.28 117.77 283.26 118.28L283.43 118.91L283.96 119.18L284.46 118.86C284.56 118.66 284.61 118.41 284.63 118.13C284.66 117.83 284.66 117.55 284.66 117.28C284.66 117.1 284.68 116.74 284.69 116.26C284.71 115.78 284.74 115.21 284.79 114.55C284.82 113.92 284.85 113.27 284.9 112.61C284.95 111.96 285 111.38 285.05 110.86C285.22 109.23 285.39 107.94 285.57 107.04C285.74 106.14 285.84 105.54 285.85 105.25C285.85 104.95 285.8 104.75 285.72 104.62L285.35 104.45L284.72 104.8C284.49 105.03 284.2 105.35 283.85 105.75C283.42 106.23 282.82 106.57 282.06 106.75C281.31 106.93 280.34 107.07 279.14 107.15C278.74 107.18 278.11 107.22 277.25 107.24C276.38 107.26 275.4 107.29 274.28 107.29C273.14 107.31 271.99 107.32 270.81 107.32C269.61 107.34 268.47 107.34 267.41 107.35H263.22L262.74 107.12C262.65 106.95 262.62 106.7 262.62 106.35V78.72C262.62 78.37 262.67 78.12 262.77 77.95L263.22 77.72C263.47 77.72 264.02 77.72 264.9 77.74C265.79 77.74 266.82 77.76 268.04 77.77C269.24 77.79 270.46 77.8 271.69 77.82C272.91 77.85 274.01 77.87 274.96 77.9C275.91 77.93 276.56 77.97 276.93 78.02C278.72 78.22 280.07 78.49 281.02 78.8C281.97 79.13 282.66 79.52 283.09 79.95C283.52 80.4 283.84 80.89 284.04 81.42C284.21 81.82 284.32 82.27 284.42 82.72C284.5 83.19 284.55 83.64 284.59 84.04C284.62 84.46 284.64 84.77 284.64 85.02C284.64 85.42 284.69 85.74 284.82 85.97C284.94 86.2 285.14 86.32 285.44 86.32L285.91 85.95L286.14 85.21C286.19 84.89 286.24 84.43 286.29 83.81C286.34 83.19 286.39 82.54 286.42 81.82C286.47 81.12 286.5 80.47 286.54 79.88C286.59 79.3 286.62 78.86 286.64 78.59C286.81 77.2 286.97 76.17 287.16 75.45C287.33 74.73 287.43 74.22 287.44 73.88L287.36 73.25L287.04 72.98L286.34 73.2L285.64 73.48C285.22 73.58 284.66 73.68 283.91 73.76C283.16 73.86 282.31 73.93 281.34 73.98C280.99 74 280.34 74.01 279.39 74.01C278.42 74.03 277.27 74.03 275.92 74.04C274.55 74.04 273.12 74.06 271.58 74.06H267.01C265.51 74.08 264.12 74.08 262.87 74.08H258.41L254.3 73.88C253.18 73.83 252 73.8 250.73 73.8C249.48 73.78 248.26 73.78 247.09 73.78C246.54 73.78 246.14 73.83 245.87 73.95C245.62 74.08 245.49 74.28 245.49 74.58L245.74 75.03L246.29 75.18C246.6 75.18 246.97 75.18 247.39 75.21C247.82 75.23 248.24 75.26 248.66 75.31C249.08 75.34 249.41 75.41 249.69 75.48C250.77 75.7 251.63 76.05 252.23 76.51C252.85 76.96 253.26 77.58 253.53 78.34C253.78 79.09 253.95 80.04 254 81.18C254.03 81.8 254.06 82.46 254.1 83.17C254.12 83.86 254.15 84.71 254.17 85.68C254.17 86.66 254.19 87.9 254.19 89.38C254.21 90.85 254.21 92.69 254.21 94.87V120.43V120.45ZM310.58 150.89C313.3 150.91 315.97 150.57 318.56 149.91C321.15 149.26 323.53 148.17 325.7 146.69C327.42 145.46 328.84 144.09 329.94 142.6C331.06 141.12 331.93 139.61 332.54 138.08C333.17 136.54 333.61 135.09 333.86 133.71C334.09 132.32 334.23 131.11 334.21 130.07C334.23 128.08 334.03 126.16 333.59 124.33C333.16 122.48 332.41 120.64 331.34 118.79C330.25 116.96 328.77 115.02 326.87 113.02C324.95 111.02 322.53 108.87 319.59 106.54L316.79 104.34C314.4 102.47 312.42 100.82 310.83 99.35C309.24 97.88 307.99 96.51 307.08 95.24C306.16 93.99 305.51 92.74 305.13 91.49C304.75 90.26 304.56 88.92 304.58 87.52C304.6 85.07 305.16 82.98 306.23 81.26C307.32 79.52 308.78 78.21 310.64 77.29C312.47 76.37 314.58 75.91 316.9 75.91C319.19 75.93 321.1 76.14 322.66 76.58C324.21 77.01 325.45 77.53 326.4 78.15C327.34 78.77 328.04 79.35 328.51 79.92C328.99 80.49 329.29 80.92 329.43 81.22C329.63 81.6 329.83 82.1 330.01 82.74C330.19 83.38 330.34 83.99 330.47 84.65C330.61 85.28 330.69 85.82 330.72 86.23C330.75 86.63 330.84 86.95 330.94 87.18C331.04 87.41 331.24 87.53 331.52 87.53C331.77 87.53 331.95 87.35 332.05 86.98C332.17 86.61 332.22 86.03 332.22 85.23C332.24 81.84 332.3 79.27 332.42 77.55C332.54 75.83 332.6 74.85 332.62 74.61L332.42 74.07C332.28 73.95 332.02 73.9 331.62 73.9C331.24 73.9 330.8 73.87 330.29 73.8C329.77 73.73 329.05 73.6 328.12 73.4C326.89 73.1 325.5 72.85 324 72.67C322.48 72.5 320.75 72.4 318.81 72.4C314.56 72.42 310.88 73.18 307.78 74.69C304.69 76.19 302.31 78.29 300.64 81C298.96 83.69 298.1 86.83 298.09 90.43C298.07 92.12 298.26 93.8 298.64 95.47C299.01 97.14 299.67 98.84 300.63 100.58C301.57 102.32 302.9 104.13 304.6 106.06C306.3 107.96 308.47 110 311.11 112.17L315.62 115.88C317.77 117.65 319.57 119.25 321.06 120.72C322.53 122.19 323.71 123.61 324.61 124.96C325.49 126.33 326.14 127.73 326.55 129.16C326.95 130.61 327.15 132.18 327.13 133.9C327.13 135.52 326.83 137.12 326.24 138.69C325.66 140.26 324.75 141.68 323.57 142.96C322.39 144.25 320.9 145.27 319.1 146.03C317.31 146.8 315.21 147.2 312.81 147.21C311.13 147.21 309.47 147.03 307.87 146.66C306.27 146.28 304.8 145.69 303.45 144.89C302.1 144.07 300.95 143.02 300 141.72C299.05 140.42 298.38 138.85 298 137C297.85 136.29 297.77 135.61 297.73 134.97C297.7 134.32 297.7 133.77 297.7 133.3C297.7 132.9 297.67 132.61 297.56 132.45C297.48 132.28 297.28 132.2 296.99 132.2L296.44 132.58C296.32 132.85 296.24 133.25 296.19 133.8C296.16 134.35 296.09 135.12 296.02 136.15C295.94 137.17 295.87 138.38 295.8 139.79C295.72 141.19 295.68 142.74 295.68 144.41C295.68 145.29 295.7 145.98 295.76 146.45C295.81 146.91 295.96 147.27 296.16 147.52C296.38 147.77 296.71 148 297.18 148.22C299.23 149.2 301.4 149.91 303.67 150.33C305.92 150.75 308.24 150.95 310.59 150.93M355.94 150.89C358.66 150.91 361.33 150.57 363.92 149.91C366.51 149.26 368.89 148.17 371.06 146.69C372.78 145.46 374.2 144.09 375.3 142.6C376.42 141.12 377.29 139.61 377.9 138.08C378.53 136.54 378.97 135.09 379.22 133.71C379.45 132.32 379.59 131.11 379.57 130.07C379.59 128.08 379.39 126.16 378.95 124.33C378.52 122.48 377.77 120.64 376.7 118.79C375.61 116.96 374.13 115.02 372.23 113.02C370.31 111.02 367.89 108.87 364.95 106.54L362.15 104.34C359.76 102.47 357.78 100.82 356.19 99.35C354.6 97.88 353.35 96.51 352.44 95.24C351.52 93.99 350.87 92.74 350.49 91.49C350.11 90.26 349.92 88.92 349.94 87.52C349.96 85.07 350.52 82.98 351.59 81.26C352.68 79.52 354.14 78.21 355.99 77.29C357.83 76.37 359.93 75.91 362.25 75.91C364.54 75.93 366.46 76.14 368.01 76.58C369.56 77.01 370.8 77.53 371.75 78.15C372.69 78.77 373.39 79.35 373.86 79.92C374.34 80.49 374.64 80.92 374.78 81.22C374.98 81.6 375.18 82.1 375.36 82.74C375.54 83.38 375.69 83.99 375.83 84.65C375.96 85.28 376.05 85.82 376.08 86.23C376.11 86.63 376.2 86.95 376.3 87.18C376.4 87.41 376.6 87.53 376.88 87.53C377.13 87.53 377.31 87.35 377.41 86.98C377.53 86.61 377.58 86.03 377.58 85.23C377.6 81.84 377.66 79.27 377.78 77.55C377.9 75.83 377.96 74.85 377.98 74.61L377.78 74.07C377.64 73.95 377.38 73.9 376.98 73.9C376.6 73.9 376.16 73.87 375.65 73.8C375.13 73.73 374.42 73.6 373.48 73.4C372.25 73.1 370.86 72.85 369.36 72.67C367.84 72.5 366.11 72.4 364.17 72.4C359.91 72.42 356.24 73.18 353.14 74.69C350.05 76.19 347.66 78.29 346 81C344.31 83.69 343.46 86.83 343.45 90.43C343.43 92.12 343.62 93.8 344 95.47C344.37 97.14 345.03 98.84 345.99 100.58C346.93 102.32 348.26 104.13 349.96 106.06C351.66 107.96 353.83 110 356.47 112.17L360.98 115.88C363.13 117.65 364.93 119.25 366.42 120.72C367.89 122.19 369.07 123.61 369.97 124.96C370.85 126.33 371.51 127.73 371.91 129.16C372.31 130.61 372.51 132.18 372.49 133.9C372.49 135.52 372.19 137.12 371.6 138.69C371.02 140.26 370.11 141.68 368.93 142.96C367.74 144.25 366.26 145.27 364.46 146.03C362.67 146.8 360.57 147.2 358.17 147.21C356.48 147.21 354.83 147.03 353.23 146.66C351.63 146.28 350.16 145.69 348.81 144.89C347.46 144.07 346.31 143.02 345.36 141.72C344.41 140.42 343.74 138.85 343.36 137C343.21 136.29 343.13 135.61 343.09 134.97C343.06 134.32 343.06 133.77 343.06 133.3C343.06 132.9 343.03 132.61 342.92 132.45C342.84 132.28 342.64 132.2 342.35 132.2L341.8 132.58C341.68 132.85 341.6 133.25 341.55 133.8C341.52 134.35 341.45 135.12 341.38 136.15C341.3 137.17 341.23 138.38 341.16 139.79C341.08 141.19 341.04 142.74 341.04 144.41C341.04 145.29 341.06 145.98 341.12 146.45C341.17 146.91 341.32 147.27 341.52 147.52C341.74 147.77 342.07 148 342.54 148.22C344.59 149.2 346.76 149.91 349.03 150.33C351.28 150.75 353.6 150.95 355.95 150.93M385.98 138.47L408.71 76.29C409.11 75.21 409.43 74.37 409.68 73.8C409.93 73.23 410.17 72.85 410.35 72.66L410.92 72.38L411.49 72.63C411.67 72.8 411.91 73.15 412.16 73.67C412.41 74.19 412.73 74.97 413.13 75.99C413.33 76.49 413.71 77.51 414.31 79.04C414.91 80.59 415.65 82.55 416.55 84.88C417.45 87.23 418.45 89.85 419.55 92.74C420.67 95.65 421.84 98.7 423.07 101.89C424.29 105.09 425.52 108.33 426.79 111.58C428.04 114.82 429.26 117.99 430.45 121.04C431.63 124.09 432.74 126.93 433.77 129.55C434.79 132.17 435.69 134.44 436.46 136.36C437.36 138.58 438.21 140.38 439.03 141.76C439.85 143.16 440.62 144.25 441.33 145.03C442.05 145.8 442.71 146.37 443.35 146.73C443.97 147.08 444.55 147.33 445.07 147.47C445.84 147.72 446.56 147.87 447.26 147.95C447.96 148.03 448.56 148.07 449.08 148.07C449.38 148.07 449.63 148.1 449.82 148.19L450.08 148.67C450.06 148.97 449.86 149.17 449.5 149.29C449.12 149.42 448.65 149.47 448.08 149.47H445.96C444.94 149.47 443.71 149.45 442.25 149.44C440.78 149.44 439.21 149.42 437.51 149.39C435.82 149.36 434.1 149.33 432.35 149.27C431.4 149.24 430.65 149.19 430.13 149.1C429.61 149.03 429.35 148.85 429.35 148.57L429.55 148.1L430.05 147.87C430.38 147.77 430.63 147.5 430.8 147.05C430.98 146.6 430.93 145.97 430.65 145.16L421.34 120.53L421 120.08L420.43 119.93H398.9L398.28 120.15L397.9 120.73L391.89 138.45C391.44 139.72 391.09 140.92 390.86 142.07C390.61 143.22 390.49 144.24 390.49 145.16C390.51 145.83 390.71 146.38 391.11 146.8C391.49 147.23 391.98 147.55 392.56 147.77C393.13 147.97 393.71 148.07 394.3 148.07H395.3C395.65 148.07 395.9 148.12 396.07 148.22L396.31 148.67C396.31 148.97 396.16 149.17 395.89 149.29C395.62 149.42 395.26 149.47 394.81 149.47C394.19 149.47 393.51 149.45 392.72 149.42C391.95 149.39 391.18 149.35 390.42 149.32C389.65 149.29 388.95 149.25 388.35 149.22C387.73 149.19 387.28 149.17 387 149.17C386.72 149.17 386.18 149.19 385.43 149.22C384.68 149.25 383.76 149.29 382.69 149.32C381.62 149.35 380.49 149.38 379.29 149.42C378.07 149.45 376.87 149.47 375.69 149.47C375.04 149.47 374.55 149.42 374.25 149.29C373.93 149.17 373.78 148.97 373.78 148.67L374.05 148.22L374.68 148.07C375.06 148.07 375.53 148.05 376.1 148C376.67 147.97 377.15 147.92 377.59 147.87C379.11 147.65 380.39 147.12 381.41 146.27C382.44 145.44 383.33 144.33 384.05 143C384.77 141.65 385.42 140.14 386 138.46M399.99 116.34H419.11L419.54 116.14L419.51 115.64L410 88.61C409.5 87.11 409 87.11 408.5 88.61L399.69 115.64L399.66 116.18L399.99 116.34ZM418.62 66.08C419.41 66.05 420.24 65.76 421.13 65.23C422 64.68 422.83 64.01 423.65 63.23C424.45 62.45 425.15 61.68 425.74 60.93C426.32 60.18 426.72 59.59 426.94 59.18C427.09 58.88 427.19 58.64 427.26 58.44L427.34 57.87L427.14 57.45L426.64 57.27L426.07 57.59C425.85 57.81 425.64 58.06 425.44 58.37C425.37 58.49 425.17 58.69 424.87 58.99C424.58 59.29 424.17 59.62 423.67 59.97C423.15 60.32 422.53 60.62 421.8 60.87C421.08 61.12 420.26 61.25 419.33 61.27C418.78 61.25 418.14 61.17 417.42 60.99C416.7 60.81 415.99 60.59 415.28 60.32C414.58 60.05 414 59.8 413.51 59.57C412.47 59.05 411.47 58.57 410.49 58.1C409.51 57.61 408.57 57.23 407.65 56.93C406.75 56.63 405.9 56.48 405.1 56.46C404.3 56.48 403.46 56.74 402.59 57.26C401.74 57.78 400.9 58.41 400.12 59.18C399.32 59.96 398.6 60.73 397.97 61.53C397.34 62.31 396.85 63 396.49 63.56C396.29 63.84 396.12 64.11 395.99 64.34L395.79 65.06L395.94 65.48L396.39 65.66L397.06 65.43C397.29 65.28 397.54 65.06 397.8 64.76C397.97 64.54 398.23 64.24 398.55 63.86C398.89 63.48 399.3 63.08 399.8 62.66C400.3 62.24 400.89 61.89 401.57 61.61C402.26 61.33 403.04 61.18 403.91 61.16C404.94 61.18 405.85 61.31 406.66 61.58C407.46 61.85 408.18 62.15 408.85 62.52C409.5 62.87 410.12 63.18 410.72 63.47C411.21 63.72 411.84 64.05 412.66 64.45C413.48 64.85 414.39 65.22 415.43 65.55C416.45 65.87 417.52 66.05 418.63 66.07M441.25 111.54C441.25 114.56 441.57 117.62 442.22 120.72C442.87 123.81 443.87 126.81 445.22 129.75C446.57 132.69 448.29 135.42 450.39 137.98C452.48 140.53 454.96 142.77 457.83 144.7C460.7 146.62 463.99 148.14 467.69 149.22C471.38 150.32 475.52 150.87 480.09 150.89C484.93 150.87 489.4 150.17 493.51 148.78C497.63 147.4 501.32 145.44 504.57 142.92C507.84 140.4 510.63 137.45 512.93 134.03C515.23 130.63 516.98 126.89 518.2 122.8C519.42 118.73 520.02 114.44 520.04 109.93C520.02 105.26 519.39 100.97 518.1 97.07C516.83 93.16 515.03 89.69 512.67 86.64C510.32 83.58 507.51 81 504.26 78.88C501.01 76.76 497.4 75.16 493.43 74.06C489.46 72.96 485.2 72.39 480.68 72.39C476.07 72.41 471.9 73.01 468.16 74.16C464.42 75.33 461.08 76.91 458.16 78.93C455.24 80.95 452.72 83.27 450.58 85.87C448.44 88.49 446.69 91.26 445.31 94.18C443.92 97.1 442.89 100.04 442.22 103.01C441.55 105.96 441.22 108.82 441.22 111.54M450.76 108.74C450.78 103.25 451.53 98.46 452.98 94.34C454.43 90.22 456.49 86.79 459.1 84.04C461.74 81.29 464.82 79.23 468.38 77.85C471.92 76.48 475.79 75.8 480 75.8C483.19 75.8 486.26 76.32 489.25 77.34C492.22 78.36 494.99 79.88 497.56 81.88C500.11 83.9 502.37 86.39 504.28 89.36C506.22 92.35 507.72 95.79 508.8 99.69C509.87 103.59 510.42 107.95 510.44 112.76C510.42 117.6 509.95 121.82 509.02 125.42C508.1 129.01 506.85 132.08 505.28 134.62C503.71 137.14 501.94 139.22 500 140.86C498.05 142.5 496.03 143.77 493.96 144.67C491.89 145.59 489.91 146.22 487.97 146.59C486.05 146.96 484.31 147.13 482.8 147.11C478.28 147.09 474.07 146.19 470.18 144.4C466.31 142.6 462.92 140.03 460.02 136.67C457.11 133.32 454.84 129.29 453.23 124.59C451.61 119.88 450.79 114.59 450.76 108.75" fill="black"></path>
<path d="M479.9 111.67C479.9 118.74 480.69 125.9 482.31 133.16C483.93 140.39 486.42 147.43 489.79 154.3C493.15 161.18 497.43 167.59 502.66 173.57C507.85 179.55 514.04 184.78 521.18 189.32C528.32 193.81 536.5 197.37 545.72 199.91C554.9 202.49 565.2 203.78 576.58 203.82C588.62 203.78 599.75 202.14 609.97 198.9C620.23 195.66 629.41 191.09 637.5 185.18C645.64 179.28 652.57 172.36 658.31 164.35C664.04 156.38 668.4 147.63 671.43 138.05C674.46 128.52 675.96 118.47 676 107.92C675.96 96.9802 674.38 86.9402 671.18 77.7902C668.03 68.6502 663.54 60.5202 657.68 53.3702C651.82 46.2202 644.85 40.1602 636.75 35.2002C628.65 30.2402 619.68 26.4802 609.8 23.9002C599.92 21.3202 589.33 19.9902 578.07 19.9902C566.61 20.0302 556.22 21.4302 546.92 24.1302C537.62 26.8602 529.31 30.5802 522.04 35.3102C514.77 40.0402 508.5 45.4702 503.19 51.5702C497.87 57.7002 493.51 64.1902 490.07 71.0302C486.62 77.8702 484.05 84.7502 482.39 91.7002C480.73 98.6202 479.9 105.3 479.9 111.67ZM503.57 105.11C503.61 92.2502 505.48 81.0402 509.09 71.3902C512.7 61.7402 517.81 53.7302 524.33 47.2802C530.89 40.8302 538.57 36.0202 547.42 32.7802C556.22 29.5802 565.86 27.9802 576.32 27.9802C584.25 27.9802 591.89 29.1902 599.33 31.5702C606.72 33.9502 613.62 37.5102 620.01 42.2002C626.37 46.9302 631.97 52.7502 636.75 59.7002C641.57 66.7002 645.31 74.7502 648.01 83.8902C650.67 93.0302 652.04 103.23 652.08 114.49C652.04 125.82 650.88 135.71 648.55 144.15C646.27 152.55 643.15 159.74 639.25 165.68C635.34 171.58 630.94 176.46 626.13 180.3C621.27 184.13 616.24 187.1 611.1 189.21C605.95 191.36 601.01 192.84 596.19 193.7C591.41 194.56 587.1 194.95 583.32 194.91C572.06 194.87 561.6 192.76 551.92 188.58C542.28 184.36 533.85 178.34 526.63 170.49C519.4 162.64 513.76 153.22 509.73 142.2C505.7 131.18 503.67 118.79 503.58 105.12" fill="black"></path>
<path d="M575.04 120.67C574.8 111.68 574.56 100.92 574.56 89.94H574.4C572.63 99.48 570.37 110.13 568.28 118.89L561.68 148.07H552.1L546.3 119.11C544.53 110.35 542.76 99.81 541.39 89.93H541.23C540.98 100.02 540.66 111.56 540.34 120.88L539.29 149.28H527.94L531.4 74.5H547.75L553.07 99.46C554.84 108.11 556.45 117.43 557.66 126.2H557.98C559.43 117.55 561.28 107.67 563.13 99.35L568.85 74.5H584.96L587.86 149.28H575.94L575.05 120.66L575.04 120.67Z" fill="black"></path>
<path d="M593.26 131.88C596.48 134.21 601.63 136.54 606.87 136.54C612.51 136.54 615.49 133.32 615.49 128.44C615.49 123.56 612.91 121.12 606.39 118.01C597.37 113.57 591.41 106.69 591.41 95.8202C591.41 83.0602 599.22 73.4102 611.94 73.4102C618.14 73.4102 622.57 75.0802 625.79 77.1802L623.05 90.7102C620.96 89.2702 617.01 87.1602 611.78 87.1602C606.55 87.1602 603.89 90.6002 603.89 94.3702C603.89 99.1402 606.87 101.25 613.95 104.91C623.53 109.79 627.96 116.67 627.96 127.21C627.96 139.75 621.04 150.4 606.14 150.4C599.94 150.4 593.82 148.07 590.75 145.74L593.25 131.87L593.26 131.88Z" fill="black"></path>
</g>
<defs>
<clipPath id="clip0_6_15">
<rect width="656" height="183.82" fill="white" transform="translate(20 20)"></rect>
</clipPath>
</defs>
</svg>