<svg width="740" height="165" viewBox="0 0 740 165" fill="none" xmlns="http://www.w3.org/2000/svg">
<path d="M506.656 123.624C506.702 123.764 506.749 124.043 506.749 124.275C506.749 124.879 506.377 125.111 505.355 125.158V125.901H510.372V125.158C509.303 125.065 509.025 124.461 508.653 123.253L504.937 111.078H503.125L499.363 123.299C498.898 124.74 498.573 125.065 497.598 125.158V125.901H501.964V125.158C500.942 125.111 500.478 124.972 500.478 124.368C500.478 124.182 500.524 123.934 500.617 123.624L501.267 121.301H506.005L506.656 123.624ZM502.522 117.072C503.125 115.121 503.404 113.819 503.636 112.937H503.729C503.869 113.587 504.24 115.167 504.798 117.072L505.727 120.232H501.593L502.522 117.072ZM487.472 111.124L487.332 114.47H488.308C488.633 112.658 488.772 112.147 490.027 112.147H491.606V123.531C491.606 124.925 491.095 125.158 489.748 125.204V125.948H495.368V125.204C493.975 125.158 493.51 124.925 493.51 123.531V112.147H495.09C496.344 112.147 496.483 112.658 496.808 114.47H497.784L497.598 111.124H487.472ZM481.062 118.885C483.524 118.838 485.335 117.583 485.335 115.121C485.335 112.147 483.291 111.124 480.272 111.124H475.163V111.868C476.556 111.914 476.835 112.286 476.835 113.494V123.578C476.835 124.786 476.556 125.158 475.163 125.204V125.948H480.365V125.204C479.064 125.158 478.739 124.74 478.739 123.578V118.931C479.993 118.977 480.597 119.489 481.34 120.79C482.223 122.277 483.059 124.043 483.988 125.948H487.007V125.204C485.939 125.158 485.66 124.74 485.196 123.95C484.406 122.556 483.663 121.115 483.106 120.372C482.641 119.721 482.037 119.21 481.062 118.977V118.885ZM483.291 115.121C483.291 117.444 482.084 118.141 480.272 118.141H478.739V112.147H480.365C482.409 112.147 483.291 112.797 483.291 115.121ZM467.359 126.18C471.121 126.18 473.305 123.16 473.305 118.606C473.305 114.47 471.586 110.845 467.266 110.845C463.689 110.845 461.321 113.587 461.321 118.466C461.321 122.927 463.364 126.18 467.405 126.18M467.266 111.868C470.146 111.868 471.168 114.377 471.168 118.838C471.168 123.253 469.774 125.204 467.359 125.204C464.433 125.204 463.411 122.416 463.411 118.234C463.411 114.052 464.572 111.868 467.266 111.868ZM452.774 119.767H454.864C457.976 119.767 459.602 118.141 459.602 115.353C459.602 112.983 458.348 111.124 454.353 111.124H449.197V111.868C450.544 111.914 450.823 112.286 450.823 113.494V123.578C450.823 124.786 450.544 125.158 449.197 125.204V125.948H454.539V125.204C453.099 125.158 452.774 124.74 452.774 123.485V119.767ZM457.558 115.632C457.558 117.816 456.768 118.745 454.725 118.745H452.774V112.147H454.353C456.908 112.147 457.558 113.076 457.558 115.632ZM447.014 111.124H443.066L440.279 120.883C440 121.812 439.861 122.974 439.814 123.345H439.675C439.628 122.927 439.536 121.858 439.21 120.883L436.238 111.124H432.289V111.868C433.822 111.914 434.008 112.379 433.962 113.494L433.265 123.485C433.125 124.786 432.94 125.158 431.778 125.204V125.948H436.052V125.204C434.472 125.158 434.472 124.693 434.519 123.624L434.937 116.05C435.03 114.609 435.076 113.494 435.076 113.169H435.216C435.262 113.587 435.541 115.167 435.773 116.05L438.792 125.948H440L443.066 115.539C443.298 114.795 443.484 113.68 443.577 113.215H443.67V113.634C443.67 114.191 443.67 115.074 443.716 115.771L444.32 123.624C444.413 124.693 444.227 125.158 442.833 125.204V125.948H447.664V125.204C446.503 125.158 446.317 124.74 446.224 123.485L445.388 113.494C445.295 112.379 445.528 111.914 447.014 111.868V111.078V111.124ZM426.669 123.578C426.669 124.832 426.39 125.204 425.043 125.251V125.994H430.246V125.251C428.898 125.204 428.62 124.832 428.62 123.578V113.541C428.62 112.286 428.898 111.961 430.246 111.914V111.124H425.043V111.914C426.39 111.961 426.669 112.286 426.669 113.541V123.578ZM408.693 125.948H418.726V122.416H417.797C417.658 124.414 417.286 124.925 415.707 124.925H412.269V118.745H414.174C415.428 118.745 415.846 119.07 415.939 120.232H416.775V116.143H415.939C415.846 117.398 415.428 117.676 414.174 117.676H412.269V112.193H415.66C416.868 112.193 417.193 112.704 417.611 114.331H418.494L418.308 111.124H408.693V111.868C410.04 111.914 410.319 112.286 410.319 113.494V123.578C410.319 124.786 410.04 125.158 408.693 125.204V125.948ZM404.28 121.115C404.28 123.81 403.444 124.879 401.168 124.879C398.52 124.879 397.777 123.671 397.777 120.79V113.494C397.777 112.286 398.056 111.914 399.496 111.868V111.124H394.293V111.868C395.547 111.914 395.826 112.286 395.826 113.494V121.254C395.826 124.507 397.498 126.18 400.889 126.18C403.955 126.18 405.674 124.693 405.674 121.115V113.494C405.674 112.286 405.906 111.914 407.113 111.868V111.124H402.561V111.868C404.048 111.914 404.28 112.286 404.28 113.494V121.115ZM391.692 128.643C392.389 128.643 392.76 128.503 392.9 128.411L393.457 126.97C393.271 127.016 392.9 127.063 392.25 127.063C390.81 127.063 389.881 126.134 388.301 125.715C391.042 125.204 392.575 122.463 392.575 118.606C392.575 114.47 390.856 110.845 386.536 110.845C382.96 110.845 380.591 113.587 380.591 118.466C380.591 122.834 382.588 125.994 386.211 126.134C388.766 126.227 389.834 128.643 391.739 128.643M386.536 111.868C389.416 111.868 390.438 114.377 390.438 118.838C390.438 123.253 388.998 125.204 386.629 125.204C383.656 125.204 382.681 122.416 382.681 118.234C382.681 114.052 383.842 111.868 386.536 111.868ZM368.049 126.18C371.765 126.18 373.995 123.16 373.995 118.606C373.995 114.47 372.276 110.845 367.956 110.845C364.333 110.845 362.011 113.587 362.011 118.466C362.011 122.927 364.008 126.18 368.049 126.18ZM367.956 111.868C370.79 111.868 371.858 114.377 371.858 118.838C371.858 123.253 370.418 125.204 368.049 125.204C365.076 125.204 364.101 122.416 364.101 118.234C364.101 114.052 365.262 111.868 367.956 111.868ZM356.39 108.336C355.368 108.336 354.904 107.36 353.557 107.36C352.303 107.36 351.699 108.29 351.42 109.498L352.117 109.777C352.442 109.173 352.767 108.754 353.557 108.754C354.439 108.754 354.95 109.684 356.39 109.684C357.598 109.684 358.248 108.754 358.62 107.639L357.877 107.36C357.505 107.918 357.087 108.336 356.39 108.336ZM357.644 123.624C357.691 123.81 357.737 124.089 357.737 124.275C357.737 124.925 357.366 125.158 356.39 125.204V125.948H361.36V125.204C360.292 125.111 360.013 124.507 359.642 123.299L355.926 111.124H354.114L350.352 123.345C349.887 124.786 349.562 125.111 348.587 125.204V125.948H352.953V125.204C351.931 125.158 351.466 125.018 351.466 124.414C351.466 124.197 351.513 123.95 351.606 123.671L352.256 121.301H356.994C356.994 121.301 357.644 123.671 357.644 123.624ZM353.51 117.072C354.114 115.121 354.393 113.819 354.625 112.983H354.718C354.857 113.634 355.229 115.214 355.786 117.072L356.715 120.279H352.581L353.51 117.072ZM344.964 128.364C344.964 127.574 344.499 126.877 343.198 126.784L343.384 126.18C345.428 126.18 346.636 125.622 347.379 125.111V122.834H346.032C345.753 124.507 345.01 125.158 343.384 125.158C340.876 125.158 339.297 123.764 339.297 118.606C339.297 113.401 340.783 111.821 343.152 111.821C344.871 111.821 345.428 112.611 345.846 114.238H347.286V111.821C346.496 111.264 345.428 110.845 343.198 110.845C339.575 110.845 337.16 113.68 337.16 118.652C337.16 122.974 338.879 125.808 342.595 126.134L342.269 127.435V127.853C342.966 127.899 343.709 128.039 343.709 128.596C343.709 129.247 343.338 129.34 342.873 129.34C342.409 129.34 342.037 129.293 341.619 128.968L341.294 129.665C341.666 129.944 342.177 130.176 342.92 130.176C344.313 130.176 344.964 129.572 344.964 128.364ZM332.84 123.624C332.84 123.764 332.933 124.043 332.933 124.275C332.933 124.879 332.515 125.111 331.539 125.158V125.948H336.556V125.158C335.488 125.111 335.209 124.507 334.837 123.299L331.121 111.078H329.263L325.501 123.345C325.083 124.786 324.758 125.111 323.736 125.204V125.948H328.149V125.204C327.08 125.158 326.616 125.018 326.616 124.368C326.616 124.182 326.662 123.934 326.755 123.624L327.452 121.301H332.143L332.84 123.624ZM328.706 117.072C329.263 115.121 329.589 113.819 329.774 112.983H329.867C330.007 113.587 330.378 115.167 330.936 117.072L331.865 120.279H327.731L328.706 117.072ZM322.389 111.078H318.394L315.654 120.836C315.375 121.766 315.189 122.927 315.143 123.345H315.05C315.003 122.881 314.864 121.858 314.585 120.836L311.612 111.078H307.664V111.821C309.151 111.868 309.383 112.379 309.29 113.448L308.593 123.438C308.5 124.74 308.268 125.111 307.107 125.158V125.901H311.38V125.158C309.801 125.111 309.801 124.647 309.894 123.578L310.312 116.003C310.358 114.563 310.405 113.448 310.405 113.169H310.544C310.591 113.541 310.869 115.121 311.148 116.003L314.121 125.901H315.375L318.441 115.539C318.673 114.749 318.859 113.634 318.905 113.169H319.044V113.587C319.044 114.145 319.044 115.028 319.091 115.725L319.695 123.578C319.788 124.693 319.602 125.111 318.162 125.158V125.901H322.993V125.158C321.831 125.111 321.646 124.693 321.553 123.438L320.763 113.448C320.67 112.332 320.902 111.914 322.389 111.821V111.078ZM300.604 118.838C303.066 118.792 304.877 117.537 304.877 115.074C304.877 112.1 302.833 111.078 299.814 111.078H294.705V111.821C296.098 111.868 296.377 112.24 296.377 113.448V123.531C296.377 124.74 296.098 125.111 294.705 125.158V125.901H299.907V125.158C298.653 125.111 298.281 124.693 298.281 123.578V118.885C299.536 118.931 300.139 119.442 300.883 120.743C301.765 122.23 302.601 123.996 303.53 125.901H306.549V125.158C305.481 125.111 305.202 124.693 304.784 123.903C303.948 122.509 303.205 121.069 302.648 120.325C302.183 119.674 301.579 119.163 300.604 118.931V118.838ZM302.833 115.074C302.833 117.398 301.626 118.095 299.814 118.095H298.281V112.1H299.907C301.951 112.1 302.833 112.751 302.833 115.074ZM286.948 126.134C290.664 126.134 292.847 123.113 292.847 118.559C292.847 114.424 291.128 110.799 286.808 110.799C283.232 110.799 280.863 113.541 280.863 118.42C280.863 122.881 282.906 126.134 286.948 126.134ZM286.808 111.821C289.688 111.821 290.756 114.331 290.756 118.792C290.756 123.206 289.317 125.158 286.948 125.158C283.975 125.158 282.953 122.37 282.953 118.187C282.953 114.005 284.114 111.821 286.808 111.821ZM269.529 125.901H274.917V125.158C273.431 125.111 273.106 124.693 273.106 123.438V119.024H275.056C276.311 119.024 276.729 119.396 276.775 120.604H277.611V116.422H276.775C276.682 117.676 276.311 117.955 275.01 117.955H273.106V112.1H276.45C277.704 112.1 277.983 112.518 278.587 114.377H279.423L279.19 111.078H269.529V111.821C270.922 111.868 271.201 112.24 271.201 113.448V123.485C271.201 124.74 270.922 125.111 269.529 125.158V125.901ZM265.116 118.745C265.116 120.65 265.255 122.556 265.395 123.16H265.255C265.07 122.509 264.466 121.115 263.862 120.046L258.66 111.078H255.315V111.821C256.709 111.868 256.987 112.24 256.987 113.448V123.485C256.987 124.74 256.709 125.111 255.315 125.158V125.901H259.96V125.158C258.613 125.111 258.334 124.74 258.334 123.485V117.398C258.334 115.306 258.195 114.005 258.102 113.448H258.195C258.381 114.005 258.799 115.214 259.914 117.119L265.07 125.901H266.51V113.448C266.51 112.24 266.742 111.868 267.95 111.821V111.078H263.49V111.821C264.884 111.868 265.116 112.24 265.116 113.448V118.745ZM250.02 123.531C250.02 124.74 249.788 125.111 248.394 125.158V125.901H253.597V125.158C252.25 125.111 251.971 124.74 251.971 123.531V113.448C251.971 112.24 252.25 111.868 253.597 111.821V111.078H248.394V111.821C249.788 111.868 250.02 112.24 250.02 113.448V123.531ZM238.779 123.624C238.825 123.764 238.872 124.089 238.872 124.275C238.872 124.925 238.5 125.158 237.478 125.204V125.948H242.495V125.204C241.427 125.111 241.148 124.507 240.776 123.299L237.06 111.124H235.249L231.486 123.345C231.022 124.786 230.697 125.111 229.721 125.204V125.948H234.088V125.204C233.066 125.158 232.601 125.018 232.601 124.414C232.601 124.197 232.648 123.934 232.741 123.624L233.391 121.301H238.129L238.779 123.624ZM234.645 117.072C235.202 115.121 235.528 113.819 235.76 112.983H235.853C235.992 113.634 236.364 115.214 236.921 117.072L237.804 120.279H233.716L234.645 117.072Z" fill="black"></path>
<path d="M672.575 94.5353H705.972V81.4312H701.141C700.63 88.0762 699.005 89.7491 694.824 89.7491H686.928V71.7658H690.922C694.871 71.7658 695.846 72.974 696.078 76.8773H700.305V61.8215H696.078C695.846 65.9108 694.824 66.8866 690.876 66.8866H686.928V49.8792H693.849C698.308 49.8792 699.098 51.4591 700.491 56.8959H705.183L704.486 44.7676H672.575V48.2063C675.919 48.2992 676.941 49.2751 676.941 53.3643V86.171C676.941 90.2602 675.919 91.236 672.575 91.236V94.5353ZM653.344 53.3643C653.344 49.2751 654.366 48.2992 657.804 48.2063V44.7676H639.038V48.2063C642.336 48.2992 643.358 49.2751 643.358 53.3643V86.171C643.358 90.2137 642.336 91.236 639.038 91.236V94.5353H670.81L671.692 80.7806H666.768C665.561 87.658 663.471 89.7491 659.336 89.7491H653.344V53.3643ZM619.808 53.3643C619.808 49.2751 620.783 48.2528 624.267 48.2063V44.7676H605.455V48.2063C608.753 48.2528 609.774 49.2751 609.774 53.3643V86.1245C609.774 90.2137 608.753 91.236 605.455 91.236V94.5353H637.226L638.155 80.7806H633.232C632.024 87.658 629.934 89.7026 625.8 89.7026H619.808V53.3643ZM588.965 86.1245C588.965 90.2137 587.943 91.236 584.645 91.236V94.5353H603.364V91.236C599.973 91.236 598.952 90.2137 598.952 86.1245V53.3643C598.952 49.2751 599.973 48.2528 603.364 48.2063V44.7676H584.645V48.2063C587.943 48.2528 588.965 49.2751 588.965 53.3643V86.1245ZM566.204 94.4888L578.467 52.8067C579.536 49.0427 580.511 48.4386 583.159 48.1134V44.7212H569.038V48.1134C571.778 48.1134 572.893 49.0427 572.893 50.7621C572.893 51.3197 572.847 51.8308 572.661 52.3885L566.483 75.3903C565.508 78.9684 564.764 83.0576 564.579 84.7769H564.207C563.928 82.9647 563.185 78.736 562.349 75.5297L556.078 52.3885C555.893 51.8308 555.753 51.1803 555.753 50.7621C555.753 49.0892 556.868 48.1134 559.469 48.1134V44.7212H541.121V48.1134C543.537 48.4851 544.234 49.0892 545.348 52.6673L558.076 94.4888H566.204ZM532.528 87.2862C532.714 87.8903 532.853 88.5409 532.853 89.052C532.853 90.4925 531.831 91.0502 528.952 91.1896V94.4888H547.067V91.1896C544.419 90.8643 543.816 89.7026 542.794 86.4033L530.113 44.7212H522.077L510.046 86.4033C508.978 90.2137 508.049 90.8643 505.309 91.1896V94.4888H519.383V91.1896C516.596 91.0502 515.342 90.8643 515.342 89.052C515.342 88.6338 515.388 88.0297 515.574 87.2862L517.153 81.1059H530.81L532.528 87.2862ZM521.613 63.8661C522.774 59.4981 523.285 57.0353 523.61 55.6412H523.935C524.167 57.0353 524.678 59.684 525.839 63.7267L529.277 75.8085H518.5L521.613 63.8661ZM490.212 86.1245C490.212 90.2137 489.191 91.236 485.846 91.236V94.5353H504.565V91.236C501.221 91.236 500.246 90.2137 500.246 86.1245V53.3643C500.246 49.2751 501.267 48.2528 504.565 48.2063V44.7676H485.846V48.2063C489.191 48.2528 490.212 49.2751 490.212 53.3643V66.329H475.07V53.3643C475.07 49.2751 476.092 48.2528 479.482 48.2063V44.7676H460.717V48.2063C464.061 48.2528 465.083 49.2751 465.083 53.3643V86.1245C465.083 90.2137 464.061 91.236 460.717 91.236V94.5353H479.482V91.236C476.092 91.236 475.07 90.2137 475.07 86.1245V71.6728H490.212V86.1245ZM437.817 75.3903H443.855C456.072 75.3903 459.602 67.816 459.602 59.9163C459.602 49.5539 453.796 44.7676 443.716 44.7676H423.464V48.2063C426.808 48.2528 427.83 49.2751 427.83 53.3178V86.1245C427.83 90.2137 426.808 91.1896 423.464 91.1896V94.4888H443.205V91.1896C438.885 91.1896 437.817 90.1208 437.817 86.078V75.3903ZM448.965 60.0557C448.965 67.7695 447.107 70.0929 442.09 70.0929H437.817V49.8327H441.579C447.107 49.8327 448.965 52.5279 448.965 60.0557ZM404.234 53.3178C404.234 49.2286 405.256 48.2528 408.693 48.1598V44.7212H389.927V48.1598C393.225 48.2528 394.247 49.2286 394.247 53.3178V86.1245C394.247 90.1673 393.225 91.1896 389.927 91.1896V94.4888H421.699L422.581 80.7342H417.658C416.45 87.6115 414.36 89.7026 410.226 89.7026H404.234V53.3178ZM372.369 85.9851C372.601 86.7286 372.741 87.5186 372.741 88.0762C372.741 89.749 371.533 90.4461 368.188 90.6319V94.4888H389.37V90.6319C386.304 90.2137 385.561 88.8661 384.4 85.0093L369.536 36.1245H360.106L345.985 85.0093C344.731 89.4238 343.663 90.2137 340.458 90.6319V94.4888H356.994V90.6319C353.696 90.4461 352.21 90.2137 352.21 88.0762C352.21 87.565 352.256 86.9145 352.488 85.9851L354.346 78.7825H370.325L372.369 85.9851ZM359.595 58.5223C360.942 53.4108 361.546 50.5762 361.918 48.9033H362.289C362.568 50.5762 363.172 53.6896 364.519 58.3829L368.56 72.5557H355.926L359.595 58.5223ZM293.404 94.4424H326.755V81.3383H321.924C321.413 88.0297 319.834 89.6561 315.607 89.6561H307.711V71.6728H311.752C315.7 71.6728 316.629 72.9275 316.908 76.7844H321.088V61.7286H316.908C316.629 65.8178 315.607 66.8401 311.659 66.8401H307.711V49.7862H314.678C319.137 49.7862 319.881 51.3661 321.321 56.8029H326.012L325.315 44.7212H293.404V48.1598C296.702 48.2063 297.724 49.2286 297.724 53.2714V86.078C297.724 90.1673 296.702 91.1431 293.404 91.1431V94.4424ZM250.995 94.4424H269.204C283.51 94.4424 290.524 85.7992 290.524 69.8141C290.524 51.7844 282.442 44.7212 269.436 44.7212H250.995V48.1598C254.293 48.2063 255.315 49.2286 255.315 53.2714V86.078C255.315 90.1673 254.293 91.1431 250.995 91.1431V94.4424ZM265.395 89.6561V49.7862H268.693C276.404 49.7862 279.748 53.8754 279.748 70.3253C279.748 86.8215 276.45 89.6561 268.507 89.6561H265.395ZM223.59 87.2398C223.776 87.8903 223.915 88.4944 223.915 89.0056C223.915 90.4461 222.893 91.0037 220.06 91.1431V94.4424H238.129V91.1431C235.528 90.8178 234.877 89.6561 233.855 86.3569L221.175 44.7212H213.139L201.108 86.3569C200.04 90.1673 199.157 90.8178 196.417 91.1431V94.4424H210.491V91.1431C207.658 91.0037 206.403 90.8178 206.403 89.0056C206.403 88.5873 206.45 88.0297 206.636 87.2398L208.261 81.0595H221.871L223.59 87.2398ZM212.721 63.8197C213.835 59.4517 214.346 57.0353 214.672 55.5948H214.997C215.229 57.0353 215.74 59.684 216.901 63.6803L220.338 75.7621H209.562L212.721 63.8197ZM181.321 86.078C181.321 90.1673 180.299 91.1896 176.954 91.1896V94.4888H195.674V91.1896C192.376 91.1896 191.354 90.1673 191.354 86.078V53.3178C191.354 49.2286 192.376 48.2063 195.674 48.1598V44.7212H176.954V48.1598C180.299 48.2063 181.321 49.2286 181.321 53.3178V66.2825H166.178V53.3178C166.178 49.2286 167.2 48.2063 170.544 48.1598V44.7212H151.825V48.1598C155.169 48.2063 156.191 49.2286 156.191 53.3178V86.078C156.191 90.1673 155.169 91.1896 151.825 91.1896V94.4888H170.544V91.1896C167.2 91.1896 166.178 90.1673 166.178 86.078V71.6264H181.321V86.078ZM132.595 53.3178C132.595 49.2286 133.616 48.2063 137.054 48.1598V44.7212H118.288V48.1598C121.586 48.2063 122.608 49.2286 122.608 53.3178V86.078C122.608 90.1673 121.586 91.1896 118.288 91.1896V94.4424H150.06L150.942 80.7342H146.065C144.857 87.6115 142.721 89.6561 138.587 89.6561H132.595V53.3178ZM95.6205 95.3253C108.069 95.3253 115.408 86.2174 115.408 70.2788C115.408 52.8531 107.79 43.8383 95.5276 43.8383C83.9615 43.8383 75.6935 52.0167 75.6935 70.1394C75.6935 86.0316 82.8932 95.3253 95.6205 95.3253ZM95.5276 48.9498C101.659 48.9498 104.353 54.2937 104.353 69.907C104.353 86.7286 100.962 90.6784 95.6205 90.6784C89.6749 90.6784 86.7485 85.7992 86.7485 69.4888C86.7485 53.1319 89.5355 48.9498 95.5276 48.9498ZM34.0743 94.4888H57.2064V90.5855C52.1434 90.5855 50.8428 89.3308 50.8428 84.5446V68.0948H55.5806C60.1792 68.0948 61.3404 69.6282 61.6191 74.1357H66.5428V56.5241H61.6191C61.3404 61.3104 60.1327 62.4721 55.4877 62.4721H50.8428V42.0725H58.8321C64.2203 42.0725 65.0564 43.7918 66.8215 50.4832H72.3491L71.4665 36.1245H34.0743V40.1673C37.9297 40.2602 39.1374 41.4219 39.1374 46.2082V84.6375C39.1374 89.4238 37.9297 90.5855 34.0743 90.5855V94.4888Z" fill="black"></path>
</svg>