<svg width="440" height="162" viewBox="0 0 440 162" fill="none" xmlns="http://www.w3.org/2000/svg">
<path d="M78.2278 111.246C75.6962 111.246 73.6709 110.737 71.8987 109.975C70.1266 109.212 68.3544 107.941 67.0886 106.416C65.8228 104.891 64.8101 103.366 64.3038 101.333C63.5443 99.554 63.2911 97.5206 63.2911 95.7415C63.2911 93.9623 63.5443 91.929 64.3038 90.1498C65.0633 88.3706 65.8228 86.5915 67.0886 85.0665C68.3544 83.5415 69.8734 82.5248 71.8987 81.5081C73.6709 80.7456 75.9494 80.2373 78.2278 80.2373C80.5063 80.2373 82.7848 80.7456 84.557 81.5081C86.3291 82.2706 88.1013 83.5415 89.3671 85.0665C90.6329 86.5915 91.6456 88.1165 92.1519 90.1498C92.9114 91.929 93.1646 93.9623 93.1646 95.7415C93.1646 97.5206 92.9114 99.554 92.1519 101.333C91.3924 103.112 90.6329 104.891 89.3671 106.416C88.1013 107.941 86.5823 108.958 84.557 109.975C82.7848 110.737 80.5063 111.246 78.2278 111.246ZM78.2278 104.637C80 104.637 81.2658 104.129 82.5316 103.366C83.7975 102.604 84.557 101.587 85.3165 100.316C85.8228 99.0456 86.3291 97.5206 86.3291 95.9956C86.3291 94.4706 86.0759 92.9456 85.3165 91.6748C84.8101 90.404 83.7975 89.3873 82.5316 88.6248C81.2658 87.8623 80 87.354 78.2278 87.354C76.4557 87.354 75.1899 87.8623 73.924 88.6248C72.6582 89.3873 71.8987 90.404 71.1392 91.6748C70.6329 92.9456 70.1266 94.4706 70.1266 95.9956C70.1266 97.5206 70.3797 99.0456 71.1392 100.316C71.6456 101.587 72.6582 102.604 73.924 103.366C75.1899 104.129 76.4557 104.637 78.2278 104.637Z" fill="black"></path>
<path d="M97.9747 110.737V80.7456H98.481L105.316 83.0331V110.483H97.9747V110.737ZM98.2278 110.737C98.2278 107.941 98.2278 105.4 98.2278 102.604C98.2278 100.062 98.2278 97.2665 98.2278 94.4706C98.2278 91.6748 98.7342 89.1331 100 87.0998C101.013 85.0665 102.785 83.2873 104.81 82.0165C106.835 80.7456 109.367 80.2373 112.152 80.2373C114.937 80.2373 114.684 80.2373 115.949 80.4915C117.215 80.4915 118.228 80.9998 119.24 81.5081L116.203 87.8623C115.696 87.8623 115.19 87.354 114.43 87.354C113.671 87.354 113.165 87.354 112.152 87.354C110.633 87.354 109.62 87.6081 108.608 88.3706C107.595 89.1331 106.835 89.8956 106.582 91.1665C106.076 92.4373 105.823 93.7081 105.823 95.2331C105.823 97.7748 105.823 100.316 105.823 103.112C105.823 105.654 105.823 108.196 105.823 110.991H98.481L98.2278 110.737Z" fill="black"></path>
<path d="M121.519 87.8624V80.9999H142.785V87.8624H121.519ZM137.722 110.737C135.19 110.737 133.165 110.229 131.646 109.467C130.127 108.45 129.367 107.179 128.608 105.654C128.101 103.875 127.848 102.096 127.848 99.8082V71.5957H128.354L135.19 73.629V99.0457C135.19 100.317 135.19 101.587 135.443 102.35C135.443 103.112 135.949 103.875 136.456 104.129C136.962 104.637 137.722 104.637 138.987 104.637C139.662 104.637 140.422 104.637 141.266 104.637C141.941 104.637 142.7 104.637 143.544 104.637V110.992H137.722V110.737Z" fill="black"></path>
<path d="M161.772 111.246C159.494 111.246 157.468 110.737 155.696 109.975C153.924 109.212 152.405 107.942 151.139 106.417C149.873 104.892 148.861 103.367 148.354 101.333C147.595 99.554 147.342 97.5207 147.342 95.4873C147.342 93.454 147.595 91.6748 148.354 89.6415C149.114 87.8623 149.873 86.0832 151.139 84.5582C152.405 83.0332 153.924 82.0165 155.696 80.9998C157.468 80.2373 159.494 79.729 161.772 79.729C164.051 79.729 164.304 79.729 165.316 80.2373C166.329 80.4915 167.342 80.9998 168.101 81.7623C168.861 82.2707 169.62 83.0332 170.127 83.7957V80.7457H177.215V110.483H170.886V106.925C169.873 107.687 169.367 108.45 168.354 108.958C167.511 109.805 166.498 110.314 165.316 110.483C164.304 110.737 163.038 110.992 161.519 110.992L161.772 111.246ZM162.532 104.637C164.304 104.637 165.57 104.129 166.835 103.367C168.101 102.604 168.861 101.587 169.62 100.317C170.127 99.0457 170.633 97.5207 170.633 95.9957C170.633 94.4707 170.38 92.9457 169.62 91.6748C169.114 90.404 168.101 89.3873 166.835 88.6248C165.57 87.8623 164.304 87.354 162.532 87.354C160.76 87.354 159.494 87.8623 158.228 88.6248C156.962 89.3873 156.203 90.404 155.443 91.6748C154.937 92.9457 154.43 94.4707 154.43 95.9957C154.43 97.5207 154.684 99.0457 155.443 100.317C155.949 101.587 156.962 102.604 158.228 103.367C159.494 104.129 160.76 104.637 162.532 104.637Z" fill="black"></path>
<path d="M191.899 110.737H184.304V67.7832H184.81L191.899 69.8165V110.737Z" fill="black"></path>
<path d="M199.494 110.737V68.2915H207.595L221.266 99.554H220.253L233.924 68.2915H242.025V110.737H234.937V80.2373H235.443L224.557 106.162H217.468L206.329 80.4915H206.835V110.991H199.747L199.494 110.737Z" fill="black"></path>
<path d="M261.266 111.246C258.987 111.246 256.962 110.737 255.19 109.975C253.418 109.212 251.899 107.942 250.633 106.417C249.367 104.892 248.354 103.367 247.848 101.333C247.089 99.554 246.835 97.5207 246.835 95.4873C246.835 93.454 247.089 91.6748 247.848 89.6415C248.608 87.8623 249.367 86.0832 250.633 84.5582C251.899 83.0332 253.418 82.0165 255.19 80.9998C256.962 80.2373 258.987 79.729 261.266 79.729C263.544 79.729 263.797 79.729 264.81 80.2373C265.823 80.4915 266.835 80.9998 267.595 81.7623C268.354 82.2707 269.114 83.0332 269.62 83.7957V80.7457H276.709V110.483H270.38V106.925C269.367 107.687 268.861 108.45 267.848 108.958C267.004 109.805 265.992 110.314 264.81 110.483C263.797 110.737 262.532 110.992 261.013 110.992L261.266 111.246ZM262.025 104.637C263.797 104.637 265.063 104.129 266.329 103.367C267.595 102.604 268.354 101.587 269.114 100.317C269.62 99.0457 270.127 97.5207 270.127 95.9957C270.127 94.4707 269.873 92.9457 269.114 91.6748C268.608 90.404 267.595 89.3873 266.329 88.6248C265.063 87.8623 263.797 87.354 262.025 87.354C260.253 87.354 258.987 87.8623 257.722 88.6248C256.456 89.3873 255.696 90.404 254.937 91.6748C254.43 92.9457 253.924 94.4707 253.924 95.9957C253.924 97.5207 254.177 99.0457 254.937 100.317C255.443 101.587 256.456 102.604 257.722 103.367C258.987 104.129 260.253 104.637 262.025 104.637Z" fill="black"></path>
<path d="M283.544 75.4085V67.5293H291.392V75.4085H283.544ZM283.797 110.738V81.0001H291.139V110.738H283.797Z" fill="black"></path>
<path d="M297.975 110.737V104.637H309.114C310.127 104.637 310.886 104.637 311.392 104.637C311.899 104.637 312.152 104.129 312.152 103.621C312.152 103.112 312.152 102.858 311.392 102.35C310.886 101.842 310.127 101.333 309.114 100.825C308.101 100.317 307.089 99.5541 305.57 98.5375C303.797 97.2666 302.278 96.25 300.759 95.2333C299.494 94.2166 298.481 93.2 297.722 91.9291C296.962 90.9125 296.709 89.3875 296.709 88.1166C296.709 86.8458 296.962 85.575 297.722 84.5583C298.481 83.5416 299.241 82.7791 300.759 82.2708C302.025 81.7625 303.797 81.5083 305.823 81.5083H318.734V82.0166L316.962 87.6083H307.595C306.835 87.6083 306.329 87.6083 305.823 87.6083C305.316 87.6083 305.063 87.6083 304.81 87.8625C304.557 87.8625 304.304 88.3708 304.304 88.625C304.304 89.1333 304.81 89.8958 306.076 90.6583C307.342 91.4208 308.861 92.4375 310.886 93.9625C312.658 95.2333 314.177 96.25 315.696 97.2666C317.046 98.2833 318.059 99.3 318.734 100.317C319.494 101.333 319.747 102.604 319.747 104.129C319.747 105.654 319.494 106.671 318.734 107.687C318.228 108.704 317.215 109.467 315.949 110.229C314.684 110.737 312.911 110.992 310.886 110.992H297.975V110.737Z" fill="black"></path>
<path d="M324.304 110.738V103.621H336.709C337.722 103.621 338.734 103.621 339.494 103.367C340.253 103.367 341.013 102.858 341.519 102.35C342.025 101.842 342.532 101.333 342.785 100.571C343.038 99.8084 343.291 99.3 343.291 98.5375C343.291 97.775 343.291 96.5042 342.532 95.7417C342.025 94.9792 341.266 94.2167 340.506 93.9625C339.494 93.4542 338.481 93.2 336.962 93.2H327.848V86.5917H336.962C338.228 86.5917 339.494 86.5917 340.506 85.8292C341.519 85.3209 342.025 84.8125 342.532 84.05C343.038 83.2875 343.291 82.2709 343.291 81.2542C343.291 80.2375 343.291 79.7292 342.785 79.2209C342.532 78.4584 342.025 77.95 341.519 77.4417C341.013 76.9334 340.253 76.6792 339.494 76.425C338.734 76.425 337.722 76.1709 336.709 76.1709H324.557V69.0542H337.722C340.253 69.0542 342.532 69.5625 344.557 70.5792C346.329 71.5959 347.848 72.8667 348.861 74.6459C349.873 76.5098 350.38 78.5431 350.38 80.7459C350.38 83.0334 350.127 84.3042 349.367 86.0834C348.608 87.6084 347.595 89.1334 346.076 90.15C347.595 91.1667 348.608 92.6917 349.367 94.2167C350.127 95.7417 350.38 97.5209 350.38 99.5542C350.38 101.588 349.873 103.875 348.861 105.654C347.848 107.433 346.582 108.704 344.557 109.721C342.7 110.738 340.422 111.246 337.722 111.246H324.304V110.738Z" fill="black"></path>
<path d="M369.114 111.246C366.076 111.246 363.291 110.737 361.266 109.467C358.987 108.196 357.468 106.671 356.203 104.637C355.19 102.604 354.43 100.317 354.43 97.7748V84.304C354.43 82.0165 354.684 79.9832 355.443 77.9498C355.949 75.9165 356.962 74.3915 358.228 72.8665C359.494 71.3415 361.013 70.3248 363.038 69.5623C365.063 68.7998 367.342 68.2915 369.873 68.2915H380.76V68.7998L378.734 75.4082H370.127C368.101 75.4082 366.582 75.9165 365.316 76.679C364.051 77.4415 363.038 78.4582 362.532 79.729C362.025 80.9998 361.519 82.5248 361.519 83.7957V87.354C362.363 86.8457 363.122 86.3373 363.798 85.829C364.557 85.3207 365.57 85.0665 366.582 84.8123C367.595 84.8123 368.608 84.5582 369.873 84.5582C372.911 84.5582 375.19 85.0665 377.215 86.3373C379.241 87.354 380.76 89.1332 381.772 91.1665C382.785 93.1998 383.291 95.4873 383.291 98.2832C383.291 100.825 382.785 103.112 381.519 105.146C380.506 107.179 378.734 108.704 376.709 109.975C374.684 111.246 371.899 111.754 368.861 111.754L369.114 111.246ZM368.861 104.637C371.139 104.637 372.911 104.129 374.177 102.858C375.443 101.842 376.203 100.062 376.203 97.7748C376.203 95.4873 375.443 93.7082 374.177 92.6915C372.911 91.6748 371.139 90.9123 368.861 90.9123C366.582 90.9123 364.81 91.4207 363.798 92.6915C362.532 93.7082 362.025 95.4873 362.025 97.7748C362.025 100.062 362.532 101.842 363.798 102.858C365.063 103.875 366.835 104.637 368.861 104.637Z" fill="black"></path>
<path d="M403.038 111.5C400.253 111.5 397.975 110.992 395.949 110.229C393.924 109.467 392.405 108.196 391.139 106.671C389.873 105.146 388.861 103.621 388.354 101.588C387.848 99.8085 387.342 97.7752 387.342 95.7418V82.7793C387.342 80.746 387.595 78.9668 388.354 76.9335C388.861 75.1543 389.873 73.3752 391.139 71.8502C392.405 70.3252 394.177 69.3085 395.949 68.2918C397.975 67.5293 400.253 67.021 403.038 67.021C405.823 67.021 408.101 67.5293 410.127 68.2918C412.152 69.0543 413.671 70.3252 414.937 71.8502C416.203 73.3752 417.215 74.9002 417.722 76.9335C418.481 78.7127 418.734 80.746 418.734 82.7793V95.7418C418.734 97.7752 418.481 99.5543 417.722 101.588C416.962 103.367 416.203 105.146 414.937 106.671C413.671 108.196 411.899 109.213 410.127 110.229C408.101 110.992 405.823 111.5 403.038 111.5ZM403.038 104.383C405.063 104.383 406.582 103.875 408.101 103.113C409.367 102.35 410.38 101.079 410.886 99.8085C411.646 98.5377 411.899 97.0127 411.899 95.4877V83.796C411.899 82.271 411.646 81.0002 410.886 79.4752C410.38 78.2043 409.367 76.9335 408.101 76.171C406.835 75.4085 405.063 74.9002 403.038 74.9002C401.013 74.9002 399.494 75.4085 397.975 76.171C396.709 76.9335 395.696 78.2043 395.19 79.4752C394.43 80.746 394.177 82.271 394.177 83.796V95.4877C394.177 97.0127 394.43 98.2835 395.19 99.8085C395.696 101.079 396.709 102.35 397.975 103.113C399.241 103.875 401.013 104.383 403.038 104.383Z" fill="black"></path>
<path d="M56.2025 71.3415C52.1519 68.0374 46.8354 67.7832 45.3164 67.7832H27.0886L21.2658 110.737H43.038L44.3038 101.079V101.587C45.8228 101.587 51.8987 100.571 56.4557 95.9957C57.7215 94.7249 61.0126 90.9124 61.519 85.0665C61.519 83.7957 62.2785 76.4249 56.4557 71.3415H56.2025ZM53.6709 88.1165C51.6456 92.1832 48.1013 93.7082 47.0886 94.2165C43.5443 95.7415 40 95.2332 38.7342 94.979L28.6076 104.383L32.9114 73.8832H45.5696C48.6076 73.8832 52.1519 75.4082 53.924 78.204C53.924 78.7124 54.4304 78.9665 54.6835 79.4749C55.6962 82.2707 55.443 85.3207 54.1772 88.1165H53.6709Z" fill="black"></path>
<path d="M52.9114 57.1084C54.4304 57.1084 62.0253 57.1084 67.8481 62.9542C73.924 69.0542 74.1772 76.9334 74.1772 78.2042H76.962C76.962 76.6792 76.962 68.0375 70.1266 61.175C63.2911 54.0584 54.1772 53.8042 52.6582 53.8042V56.8542L52.9114 57.1084Z" fill="black"></path>
<path d="M70.8861 79.4749C70.8861 78.2041 70.8861 71.0874 65.3164 65.4957C59.7468 59.9041 52.6582 59.6499 51.3924 59.6499V62.6999C52.6582 62.6999 58.2278 62.6999 62.7848 67.2749C67.5949 72.1041 67.8481 78.4582 67.8481 79.4749H70.6329H70.8861Z" fill="black"></path>
<path d="M21.519 131.325L25.3164 118.362H26.8354L30.6329 131.325H28.8608L26.0759 120.904L23.2911 131.325H21.519ZM23.5443 128.529V126.75H28.8608V128.529H23.5443Z" fill="black"></path>
<path d="M36.7089 131.325V118.362H38.2278L43.038 128.275V118.362H44.8101V131.325H43.2911L38.481 121.666V131.325H36.7089Z" fill="black"></path>
<path d="M50.6329 131.579C49.8734 131.579 49.1139 131.579 48.6076 131.071C48.1013 130.816 47.5949 130.308 47.3418 129.8C47.0886 129.291 46.8354 128.529 46.8354 127.766V122.683C46.8354 121.921 46.8354 121.158 47.3418 120.65C47.5949 120.141 48.1013 119.633 48.6076 119.379C49.1139 119.125 49.8734 118.871 50.6329 118.871C51.3924 118.871 52.1519 118.871 52.6582 119.379C53.1646 119.887 53.6709 120.141 53.9241 120.65C54.1772 121.158 54.4304 121.921 54.4304 122.683V127.766C54.4304 128.529 54.4304 129.291 53.9241 129.8C53.6709 130.308 53.1646 130.816 52.6582 131.071C52.1519 131.325 51.3924 131.579 50.6329 131.579ZM50.6329 129.8C51.3924 129.8 51.8987 129.8 52.1519 129.291C52.4051 128.783 52.6582 128.275 52.6582 127.766V122.429C52.6582 121.666 52.6582 121.158 52.1519 120.904C51.6456 120.65 51.1392 120.396 50.6329 120.396C50.1266 120.396 49.3671 120.396 49.1139 120.904C48.8608 121.412 48.6076 121.921 48.6076 122.429V127.766C48.6076 128.529 48.6076 129.037 49.1139 129.291C49.3671 129.8 50.1266 129.8 50.6329 129.8Z" fill="black"></path>
<path d="M55.6962 120.141V118.362H63.2912V120.141H55.6962ZM58.481 131.325V119.379H60.2532V131.325H58.481Z" fill="black"></path>
<path d="M65.8228 117.6L64.8101 116.583L67.0886 114.296L68.3544 115.567L65.8228 117.6ZM66.5823 118.363V131.325H64.8101V118.363H66.5823Z" fill="black"></path>
<path d="M72.6582 131.579C71.8988 131.579 71.1393 131.579 70.6329 131.071C70.1266 130.817 69.6203 130.308 69.3671 129.546C69.1139 129.037 68.8608 128.275 68.8608 127.258V122.175C68.8608 121.412 68.8608 120.65 69.3671 119.887C69.6203 119.379 70.1266 118.871 70.6329 118.362C71.1393 118.108 71.8988 117.854 72.6582 117.854C73.4177 117.854 73.9241 117.854 74.6836 118.362C75.4431 118.871 75.6962 119.125 75.9494 119.633C76.2026 120.142 76.4557 120.904 76.4557 121.667H74.6836C74.6836 121.158 74.6836 120.904 74.4304 120.396C74.4304 120.142 73.9241 119.887 73.6709 119.633C73.4177 119.633 73.1646 119.633 72.6582 119.633C72.1519 119.633 71.6456 119.633 71.1393 120.396C70.8861 120.904 70.6329 121.412 70.6329 122.175V127.258C70.6329 128.021 70.6329 128.529 71.1393 129.037C71.3924 129.546 71.8988 129.546 72.6582 129.546C73.4177 129.546 73.6709 129.546 73.9241 129.037C74.1772 128.529 74.4304 128.021 74.4304 127.512H76.2026C76.2026 128.275 76.2026 129.037 75.6962 129.546C75.1899 130.054 74.9367 130.562 74.4304 130.817C73.9241 131.071 73.1646 131.325 72.4051 131.325L72.6582 131.579Z" fill="black"></path>
<path d="M80 118.362V131.325H78.2278V118.362H80Z" fill="black"></path>
<path d="M81.2658 131.325L85.0633 118.362H86.5823L90.3797 131.325H88.6076L85.8228 120.904L83.038 131.325H81.2658ZM83.5443 128.529V126.75H88.8607V128.529H83.5443Z" fill="black"></path>
<path d="M96.4557 131.325V118.363H98.2278V131.325H96.4557ZM97.4683 126.242V124.463H100.759C101.266 124.463 101.519 124.463 101.772 123.954C102.025 123.7 102.278 123.192 102.278 122.683V121.667C102.278 121.158 102.278 120.65 101.772 120.396C101.519 120.142 101.013 119.888 100.759 119.888H97.4683V118.108H100.759C101.519 118.108 102.025 118.108 102.532 118.617C103.038 119.125 103.544 119.379 103.797 119.888C104.051 120.396 104.304 120.904 104.304 121.667V122.683C104.304 123.446 104.304 123.954 103.797 124.463C103.544 124.971 103.038 125.479 102.532 125.733C102.025 125.988 101.519 126.242 100.759 126.242H97.4683Z" fill="black"></path>
<path d="M109.62 131.579C108.861 131.579 108.101 131.579 107.595 131.071C107.089 130.816 106.582 130.308 106.329 129.8C106.076 129.291 105.823 128.529 105.823 127.766V122.683C105.823 121.921 105.823 121.158 106.329 120.65C106.582 120.141 107.089 119.633 107.595 119.379C108.101 119.125 108.861 118.871 109.62 118.871C110.38 118.871 111.139 118.871 111.646 119.379C112.152 119.887 112.658 120.141 112.911 120.65C113.165 121.158 113.418 121.921 113.418 122.683V127.766C113.418 128.529 113.418 129.291 112.911 129.8C112.658 130.308 112.152 130.816 111.646 131.071C111.139 131.325 110.38 131.579 109.62 131.579ZM109.62 129.8C110.38 129.8 110.886 129.8 111.139 129.291C111.392 128.783 111.646 128.275 111.646 127.766V122.429C111.646 121.666 111.646 121.158 111.139 120.904C110.633 120.65 110.127 120.396 109.62 120.396C109.114 120.396 108.354 120.396 108.101 120.904C107.848 121.412 107.595 121.921 107.595 122.429V127.766C107.595 128.529 107.595 129.037 108.101 129.291C108.354 129.8 109.114 129.8 109.62 129.8Z" fill="black"></path>
<path d="M115.696 131.325V118.363H117.468V131.325H115.696ZM116.456 125.988V124.208H119.747C120.253 124.208 120.506 124.208 121.013 123.7C121.266 123.446 121.519 122.938 121.519 122.429V121.667C121.519 121.158 121.519 120.65 121.013 120.396C120.759 120.142 120.253 119.888 119.747 119.888H116.456V118.108H119.747C120.506 118.108 121.013 118.108 121.519 118.617C122.025 118.871 122.532 119.379 122.785 119.888C123.038 120.396 123.291 120.904 123.291 121.667V122.429C123.291 123.192 123.291 123.7 122.785 124.208C122.278 124.717 122.025 125.225 121.519 125.479C121.013 125.733 120.253 125.988 119.747 125.988H116.456ZM121.772 131.325L119.494 125.479L121.266 124.971L124.051 131.325H122.025H121.772Z" fill="black"></path>
<path d="M128.608 120.141V118.362H136.203V120.141H128.608ZM131.646 131.325V119.379H133.418V131.325H131.646Z" fill="black"></path>
<path d="M141.266 131.579C140.506 131.579 139.747 131.579 139.241 131.071C138.734 130.816 138.228 130.308 137.975 129.8C137.722 129.291 137.468 128.529 137.468 127.766V122.683C137.468 121.921 137.468 121.158 137.975 120.65C138.228 120.141 138.734 119.633 139.241 119.379C139.747 119.125 140.506 118.871 141.266 118.871C142.025 118.871 142.785 118.871 143.291 119.379C143.797 119.887 144.304 120.141 144.557 120.65C144.81 121.158 145.063 121.921 145.063 122.683V127.766C145.063 128.529 145.063 129.291 144.557 129.8C144.304 130.308 143.797 130.816 143.291 131.071C142.785 131.325 142.025 131.579 141.266 131.579ZM141.266 129.8C142.025 129.8 142.532 129.8 142.785 129.291C143.038 128.783 143.291 128.275 143.291 127.766V122.429C143.291 121.666 143.291 121.158 142.785 120.904C142.279 120.65 141.772 120.396 141.266 120.396C140.76 120.396 140 120.396 139.747 120.904C139.494 121.412 139.241 121.921 139.241 122.429V127.766C139.241 128.529 139.241 129.037 139.747 129.291C140 129.8 140.76 129.8 141.266 129.8Z" fill="black"></path>
<path d="M147.342 131.325V118.363H149.114V131.325H147.342ZM148.354 131.325V129.546H150.886C151.392 129.546 151.899 129.546 152.405 129.038C152.658 128.783 152.911 128.275 152.911 127.513V121.921C152.911 121.413 152.911 120.904 152.405 120.396C152.152 120.142 151.646 119.888 150.886 119.888H148.354V118.108H150.886C152.152 118.108 152.911 118.363 153.671 119.125C154.43 119.888 154.684 120.65 154.684 121.921V127.513C154.684 128.275 154.684 129.038 154.177 129.546C153.671 130.054 153.418 130.563 152.911 130.817C152.405 131.071 151.646 131.325 150.886 131.325H148.354Z" fill="black"></path>
<path d="M160.506 131.579C159.747 131.579 158.987 131.579 158.481 131.071C157.975 130.816 157.468 130.308 157.215 129.8C156.962 129.291 156.709 128.529 156.709 127.766V122.683C156.709 121.921 156.709 121.158 157.215 120.65C157.468 120.141 157.975 119.633 158.481 119.379C158.987 119.125 159.747 118.871 160.506 118.871C161.266 118.871 162.025 118.871 162.532 119.379C163.038 119.887 163.544 120.141 163.797 120.65C164.051 121.158 164.304 121.921 164.304 122.683V127.766C164.304 128.529 164.304 129.291 163.797 129.8C163.544 130.308 163.038 130.816 162.532 131.071C162.025 131.325 161.266 131.579 160.506 131.579ZM160.506 129.8C161.266 129.8 161.772 129.8 162.025 129.291C162.278 128.783 162.532 128.275 162.532 127.766V122.429C162.532 121.666 162.532 121.158 162.025 120.904C161.519 120.65 161.013 120.396 160.506 120.396C160 120.396 159.241 120.396 158.987 120.904C158.734 121.412 158.481 121.921 158.481 122.429V127.766C158.481 128.529 158.481 129.037 158.987 129.291C159.241 129.8 160 129.8 160.506 129.8Z" fill="black"></path>
<path d="M169.873 131.579C169.114 131.579 168.608 131.579 168.101 131.325C167.595 131.325 167.089 130.817 166.835 130.308C166.498 129.8 166.245 129.292 166.076 128.783L167.848 128.021C167.848 128.529 168.354 129.038 168.608 129.292C168.861 129.546 169.367 129.8 170.127 129.8C170.886 129.8 171.392 129.8 171.646 129.292C171.899 129.038 172.152 128.529 172.152 128.021V127.513C172.152 127.004 172.152 126.75 171.899 126.496C171.899 126.496 171.392 125.988 171.139 125.988C170.886 125.988 170.38 125.733 169.873 125.733C169.367 125.733 169.114 125.733 168.608 125.225C168.101 125.225 167.848 124.971 167.595 124.717C167.342 124.717 167.089 124.208 166.835 123.7C166.835 123.192 166.582 122.683 166.582 122.175C166.582 120.65 166.835 119.888 167.595 119.379C168.354 118.871 169.114 118.617 170.38 118.617C171.646 118.617 172.152 118.617 172.658 119.379C173.165 119.888 173.671 120.396 173.924 121.413L172.405 122.175C172.405 121.667 171.899 121.158 171.646 120.904C171.392 120.65 170.886 120.396 170.38 120.396C169.62 120.396 169.114 120.396 168.861 120.904C168.608 121.158 168.354 121.667 168.354 122.175V122.683C168.354 123.192 168.354 123.446 168.608 123.7C168.608 123.7 169.114 124.208 169.62 124.208C170.127 124.208 170.38 124.463 170.886 124.717C171.392 124.717 171.646 124.717 172.152 125.225C172.658 125.733 172.911 125.479 173.165 125.733C173.418 125.733 173.671 126.242 173.924 126.75C173.924 127.258 174.177 127.767 174.177 128.275V128.783C174.177 129.8 173.924 130.817 173.165 131.325C172.405 131.833 171.392 132.088 170.38 132.088L169.873 131.579Z" fill="black"></path>
<path d="M183.797 131.579C183.038 131.579 182.278 131.579 181.772 131.071C181.266 130.816 180.759 130.308 180.506 129.8C180.253 129.291 180 128.529 180 127.766V122.683C180 121.921 180 121.158 180.506 120.65C180.759 120.141 181.266 119.633 181.772 119.379C182.278 119.125 183.038 118.871 183.797 118.871C184.557 118.871 185.316 118.871 185.823 119.379C186.329 119.887 186.835 120.141 187.089 120.65C187.342 121.158 187.595 121.921 187.595 122.683V127.766C187.595 128.529 187.595 129.291 187.089 129.8C186.835 130.308 186.329 130.816 185.823 131.071C185.316 131.325 184.557 131.579 183.797 131.579ZM183.797 129.8C184.557 129.8 185.063 129.8 185.316 129.291C185.57 128.783 185.823 128.275 185.823 127.766V122.429C185.823 121.666 185.823 121.158 185.316 120.904C184.81 120.65 184.304 120.396 183.797 120.396C183.291 120.396 182.532 120.396 182.278 120.904C182.025 121.412 181.772 121.921 181.772 122.429V127.766C181.772 128.529 181.772 129.037 182.278 129.291C182.532 129.8 183.291 129.8 183.797 129.8Z" fill="black"></path>
<path d="M193.165 131.579C192.405 131.579 191.899 131.579 191.392 131.325C190.886 131.325 190.38 130.817 190.127 130.308C189.958 129.8 189.705 129.292 189.367 128.783L191.139 128.021C191.139 128.529 191.646 129.038 191.899 129.292C192.152 129.546 192.658 129.8 193.418 129.8C194.177 129.8 194.684 129.8 194.937 129.292C195.19 129.038 195.443 128.529 195.443 128.021V127.513C195.443 127.004 195.443 126.75 195.19 126.496C195.19 126.496 194.684 125.988 194.43 125.988C194.177 125.988 193.671 125.733 193.165 125.733C192.658 125.733 192.405 125.733 191.899 125.225C191.392 125.225 191.139 124.971 190.886 124.717C190.633 124.717 190.38 124.208 190.127 123.7C190.127 123.192 189.873 122.683 189.873 122.175C189.873 120.65 190.127 119.888 190.886 119.379C191.646 118.871 192.405 118.617 193.671 118.617C194.937 118.617 195.443 118.617 195.949 119.379C196.456 119.888 196.962 120.396 197.215 121.413L195.696 122.175C195.696 121.667 195.19 121.158 194.937 120.904C194.684 120.65 194.177 120.396 193.671 120.396C192.911 120.396 192.405 120.396 192.152 120.904C191.899 121.158 191.646 121.667 191.646 122.175V122.683C191.646 123.192 191.646 123.446 191.899 123.7C191.899 123.7 192.405 124.208 192.911 124.208C193.418 124.208 193.671 124.463 194.177 124.717C194.684 124.717 194.937 124.717 195.443 125.225C195.949 125.733 196.202 125.479 196.456 125.733C196.709 125.733 196.962 126.242 197.215 126.75C197.215 127.258 197.468 127.767 197.468 128.275V128.783C197.468 129.8 197.215 130.817 196.456 131.325C195.696 131.833 194.684 132.088 193.671 132.088L193.165 131.579Z" fill="black"></path>
<path d="M202.532 131.325L206.329 118.363H207.848L211.646 131.325H209.873L207.089 120.904L204.304 131.325H202.532ZM207.342 114.296L210.127 116.329L209.114 117.346L207.595 116.075L206.076 117.346L205.063 116.329L207.848 114.296H207.342ZM204.557 128.529V126.75H209.873V128.529H204.557Z" fill="black"></path>
<path d="M213.418 131.325V118.362H214.937L219.747 128.275V118.362H221.519V131.325H220L215.19 121.666V131.325H213.418Z" fill="black"></path>
<path d="M227.595 124.462H231.392V127.512C231.392 128.275 231.392 129.037 230.886 129.8C230.633 130.308 230.127 130.816 229.62 131.325C229.114 131.579 228.354 131.833 227.595 131.833C226.835 131.833 226.076 131.833 225.57 131.325C225.063 130.816 224.557 130.562 224.304 130.054C224.051 129.546 223.797 128.783 223.797 128.021V122.683C223.797 121.921 223.797 121.158 224.304 120.396C224.557 119.887 225.063 119.379 225.57 118.871C226.076 118.616 226.835 118.362 227.595 118.362C228.354 118.362 228.861 118.362 229.62 118.871C230.38 119.379 230.633 119.633 230.886 120.141C231.139 120.65 231.392 121.412 231.392 122.175H229.62C229.62 121.412 229.367 120.904 229.114 120.65C228.861 120.396 228.354 120.141 227.848 120.141C227.342 120.141 226.835 120.141 226.329 120.904C226.076 121.412 225.823 121.921 225.823 122.683V128.021C225.823 128.783 225.823 129.291 226.329 129.546C226.582 130.054 227.089 130.054 227.848 130.054C228.608 130.054 228.861 130.054 229.367 129.546C229.873 129.037 229.873 128.529 229.873 127.766V126.496H227.848V124.716L227.595 124.462Z" fill="black"></path>
<path d="M236.962 131.579C235.696 131.579 234.937 131.325 234.177 130.563C233.418 129.8 233.165 129.038 233.165 127.767V118.617H234.937V127.767C234.937 128.529 234.937 129.038 235.443 129.292C235.696 129.546 236.203 129.8 236.962 129.8C237.722 129.8 237.975 129.8 238.481 129.292C238.987 128.783 238.987 128.275 238.987 127.767V118.617H240.759V127.767C240.759 129.038 240.506 130.054 239.747 130.563C238.987 131.071 238.228 131.579 236.962 131.579Z" fill="black"></path>
<path d="M242.785 131.325V118.362H244.557V131.325H242.785ZM243.797 131.325V129.546H249.62V131.325H243.797Z" fill="black"></path>
<path d="M254.937 131.579C254.177 131.579 253.418 131.579 252.911 131.071C252.405 130.816 251.899 130.308 251.646 129.8C251.392 129.291 251.139 128.529 251.139 127.766V122.683C251.139 121.921 251.139 121.158 251.646 120.65C251.899 120.141 252.405 119.633 252.911 119.379C253.418 119.125 254.177 118.871 254.937 118.871C255.696 118.871 256.456 118.871 256.962 119.379C257.468 119.887 257.975 120.141 258.228 120.65C258.481 121.158 258.734 121.921 258.734 122.683V127.766C258.734 128.529 258.734 129.291 258.228 129.8C257.975 130.308 257.468 130.816 256.962 131.071C256.456 131.325 255.696 131.579 254.937 131.579ZM254.937 129.8C255.696 129.8 256.203 129.8 256.456 129.291C256.709 128.783 256.962 128.275 256.962 127.766V122.429C256.962 121.666 256.962 121.158 256.456 120.904C255.949 120.65 255.443 120.396 254.937 120.396C254.43 120.396 253.671 120.396 253.418 120.904C253.165 121.412 252.911 121.921 252.911 122.429V127.766C252.911 128.529 252.911 129.037 253.418 129.291C253.671 129.8 254.43 129.8 254.937 129.8Z" fill="black"></path>
<path d="M264.051 131.579C263.291 131.579 262.785 131.579 262.278 131.325C261.772 131.325 261.266 130.817 261.013 130.308C260.844 129.8 260.591 129.292 260.253 128.783L262.025 128.021C262.025 128.529 262.532 129.038 262.785 129.292C263.038 129.546 263.544 129.8 264.304 129.8C265.063 129.8 265.57 129.8 265.823 129.292C266.076 129.038 266.329 128.529 266.329 128.021V127.513C266.329 127.004 266.329 126.75 266.076 126.496C266.076 126.496 265.57 125.988 265.316 125.988C265.063 125.988 264.557 125.733 264.051 125.733C263.544 125.733 263.291 125.733 262.785 125.225C262.278 125.225 262.025 124.971 261.772 124.717C261.519 124.717 261.266 124.208 261.013 123.7C261.013 123.192 260.759 122.683 260.759 122.175C260.759 120.65 261.013 119.888 261.772 119.379C262.532 118.871 263.291 118.617 264.557 118.617C265.823 118.617 266.329 118.617 266.835 119.379C267.342 119.888 267.848 120.396 268.101 121.413L266.582 122.175C266.582 121.667 266.076 121.158 265.823 120.904C265.57 120.65 265.063 120.396 264.557 120.396C263.797 120.396 263.291 120.396 263.038 120.904C262.785 121.158 262.532 121.667 262.532 122.175V122.683C262.532 123.192 262.532 123.446 262.785 123.7C262.785 123.7 263.291 124.208 263.797 124.208C264.304 124.208 264.557 124.463 265.063 124.717C265.57 124.717 265.823 124.717 266.329 125.225C266.835 125.733 267.089 125.479 267.342 125.733C267.595 125.733 267.848 126.242 268.101 126.75C268.101 127.258 268.354 127.767 268.354 128.275V128.783C268.354 129.8 268.101 130.817 267.342 131.325C266.582 131.833 265.57 132.088 264.557 132.088L264.051 131.579Z" fill="black"></path>
<path d="M383.797 117.854C383.291 118.617 380.506 119.887 380 120.396C377.468 122.429 371.392 123.954 367.848 125.479C369.367 123.192 371.139 119.125 372.152 116.075C372.152 116.075 370.886 116.075 370.127 116.075C369.114 119.887 367.595 122.937 366.076 125.733C358.228 128.021 349.62 128.783 340.506 128.021C340.759 128.021 340.506 126.75 340.506 126.496C340.169 125.818 339.662 125.056 338.987 124.208L337.215 123.192C337.215 121.158 337.215 122.683 337.215 119.887C335.19 119.887 337.468 119.887 335.696 119.887C335.696 121.158 335.696 122.175 335.19 123.192C333.418 123.7 331.646 124.717 331.392 126.496C323.797 124.971 316.456 122.683 309.62 119.379C308.354 119.379 307.089 119.379 305.57 118.871C304.051 118.871 302.785 118.617 301.266 118.362C301.266 121.921 302.025 127.004 303.291 129.037C298.481 126.496 291.899 119.887 288.861 116.329C286.835 116.075 288.861 116.329 286.835 115.821C294.684 126.75 305.823 135.137 319.747 139.204C344.304 146.321 369.873 137.171 384.81 118.108H383.291L383.797 117.854ZM306.582 131.325C305.57 129.292 303.291 123.7 303.797 119.379C311.646 123.7 322.785 127.004 331.899 128.529C331.899 129.037 333.165 130.817 333.671 131.325C332.405 134.629 328.861 137.933 327.848 138.95C320.253 137.679 313.418 134.883 306.582 131.325ZM360.253 135.137C353.418 138.187 346.076 139.458 338.481 139.458C336.962 139.458 331.646 139.204 330.127 138.95C331.392 137.933 333.924 134.629 335.443 132.087C336.962 132.087 339.494 131.071 340.253 129.8C348.861 130.562 357.468 129.8 365.063 127.512C363.544 129.8 362.278 133.612 360.253 135.137ZM363.544 133.612C365.063 132.342 366.329 129.292 367.342 127.512C369.873 126.496 375.696 124.971 377.975 123.7C375.949 127.512 367.848 131.579 363.797 133.867L363.544 133.612Z" fill="black"></path>
<path d="M393.671 62.1916C393.165 60.6666 392.658 59.1416 392.152 57.6166C390.38 53.2958 389.114 50.4999 386.582 46.6874L380.253 38.8083C372.911 30.9291 365.063 25.5916 353.924 22.5416C323.544 14.6624 294.177 29.1499 282.278 57.6166C281.772 59.1416 281.266 60.4124 280.759 61.9374C280.759 61.9374 280.759 62.1916 280.759 62.4458C280.759 63.2083 280.253 63.9708 280.253 64.7333C281.519 64.4791 280.253 64.7333 281.772 64.4791C281.772 64.4791 281.772 64.2249 281.772 63.9708C281.772 63.7166 281.772 63.2083 282.025 62.9541C282.278 61.9374 282.785 60.9208 283.038 59.9041C283.038 60.9208 283.038 61.9374 282.785 62.9541C282.785 63.2083 282.785 63.7166 282.785 64.2249C283.291 64.2249 283.797 64.2249 284.304 64.2249C284.304 64.0555 284.304 63.8013 284.304 63.4624C284.304 61.4291 284.304 59.6499 284.304 57.8708C284.304 57.3624 284.304 56.8541 284.557 56.3458C285.316 54.5666 286.329 52.7874 287.089 51.2624C290.127 47.1958 293.671 43.8916 298.228 41.0958C296.709 45.9249 296.962 51.2624 299.241 56.8541C299.241 56.8541 299.241 57.1083 299.241 57.3624C297.215 59.1416 295.443 61.1749 293.671 62.9541C295.19 62.9541 295.19 62.9541 296.962 62.6999C297.722 61.9374 298.987 60.1583 299.747 59.3958C300.253 60.1583 301.519 61.6833 302.025 62.1916C303.291 62.1916 304.304 62.1916 305.57 61.9374C304.557 60.6666 303.291 58.8874 302.532 57.3624C303.038 56.8541 303.544 56.3458 304.051 55.8374C309.114 51.5166 316.203 47.4499 322.278 44.3999C323.291 45.9249 324.304 47.7041 325.823 49.2291C327.595 51.0083 329.114 52.2791 331.392 53.8041C331.139 54.3124 327.342 59.3958 326.076 61.1749C327.342 61.1749 326.835 61.1749 328.101 61.1749C329.114 59.3958 331.646 56.3458 332.658 54.5666C335.696 56.3458 339.494 57.8708 342.785 58.6333C349.367 60.1583 356.456 61.1749 363.038 59.3958C369.62 57.6166 364.051 59.3958 364.051 59.1416C364.051 59.6499 365.57 61.4291 365.823 61.9374C366.835 61.9374 366.835 61.9374 367.848 61.9374C367.342 61.1749 366.329 59.1416 366.076 58.3791C368.101 57.6166 368.861 57.1083 370.38 56.0916C370.886 55.5833 372.152 55.0749 372.658 54.5666C374.43 55.0749 375.443 55.5833 377.215 54.5666C378.481 55.8374 380.253 56.8541 381.266 58.3791C382.278 59.9041 383.038 61.9374 384.304 63.4624C385.316 63.4624 386.076 63.4624 386.076 63.4624C384.557 61.1749 383.797 58.8874 382.025 56.8541C381.013 55.5833 379.747 54.3124 378.734 53.2958C379.24 52.5333 379.747 51.5166 379.747 50.4999C379.747 48.7208 378.734 47.1958 376.962 46.4333C376.962 44.6541 376.456 42.8749 375.696 41.0958C380.084 43.468 383.629 46.2638 386.329 49.4833C387.342 51.2624 388.354 52.7874 389.114 54.5666C389.283 55.5833 389.536 56.5999 389.873 57.6166C390.127 59.6499 390.127 61.4291 389.873 63.4624C389.873 63.8013 389.873 64.0555 389.873 64.2249C390.38 64.2249 390.886 64.2249 391.392 64.4791C391.392 63.9708 391.392 63.7166 391.392 63.2083C391.392 61.6833 391.392 60.1583 390.886 58.6333C391.392 60.1583 391.899 61.6833 392.405 63.2083C392.405 63.7166 392.658 64.4791 392.911 64.9874C394.43 65.2416 393.418 64.9874 394.684 65.4958C394.43 64.4791 394.177 63.4624 393.924 62.1916H393.671ZM366.076 56.0916C366.076 56.0916 365.316 56.3458 365.063 56.5999C365.063 56.5999 365.063 56.5999 365.063 56.3458C361.266 49.4833 356.962 42.8749 351.646 37.5374C356.203 42.8749 360.253 48.9749 363.544 55.8374C363.544 56.0916 363.797 56.5999 364.051 57.1083C360.253 58.3791 354.937 58.3791 350.38 57.8708C350.38 57.193 350.38 56.4305 350.38 55.5833C350.38 48.9749 350.886 42.8749 350.38 37.5374C350.38 42.8749 349.873 48.9749 349.114 55.5833C349.114 56.3458 349.114 56.8541 349.114 57.6166C346.582 57.1083 343.797 56.5999 341.519 55.5833C339.747 54.8208 336.962 53.5499 335.19 52.7874C339.494 46.6874 344.81 41.6041 349.114 37.2833C344.304 41.3499 339.24 46.4333 334.43 52.2791C332.405 51.0083 330.633 49.4833 328.861 47.9583C327.595 46.6874 326.329 45.1624 325.57 43.6374C332.911 40.0791 340.506 37.5374 348.354 36.2666C340.253 37.0291 332.405 39.0624 324.81 42.1124C324.051 40.5874 323.797 39.0624 323.544 37.7916C323.544 37.7916 323.544 37.7916 323.797 37.7916C326.329 37.7916 328.354 35.7583 328.354 33.2166C328.354 30.6749 328.354 33.2166 328.354 32.9624C334.684 32.9624 341.519 33.4708 348.101 35.2499C341.266 32.9624 334.43 31.9458 328.101 31.6916C327.848 30.6749 327.089 29.9124 326.329 29.4041C327.595 27.8791 329.62 26.3541 331.899 25.3374C337.468 26.8624 343.291 29.6583 349.114 34.4874C341.266 27.1166 333.165 23.5583 325.823 23.5583C332.658 22.0333 340 21.7791 347.342 22.7958C342.025 22.0333 336.456 22.5416 331.899 23.8124C332.658 23.8124 333.165 24.0666 333.924 24.3208C338.228 23.0499 343.038 22.7958 347.848 23.3041C349.114 25.0833 350.127 28.6416 350.633 33.9791C350.633 28.8958 350.633 25.3374 349.873 23.5583C354.43 24.3208 358.734 26.0999 362.785 28.1333C360 28.6416 356.203 30.6749 351.899 34.2333C356.709 30.9291 361.013 29.4041 364.557 29.1499C366.329 30.4208 368.101 31.6916 369.62 33.2166C371.139 34.7416 372.405 36.2666 373.165 37.7916C367.342 35.5041 360.506 34.7416 352.911 34.9958C360.759 34.9958 367.848 36.5208 373.924 39.0624C374.684 41.0958 375.19 43.1291 374.937 45.1624C373.924 45.1624 372.911 45.6708 372.405 46.4333C366.835 42.1124 360.253 38.5541 353.165 35.7583C360 38.8083 366.329 42.6208 371.646 47.1958C371.392 47.7041 371.139 48.4666 371.139 49.2291C371.139 49.9916 371.139 50.7541 371.899 51.5166C370.633 52.7874 369.114 54.0583 367.089 54.8208L366.076 56.0916ZM306.329 31.1833C310.886 28.3874 315.696 26.0999 321.013 24.5749C323.544 24.5749 326.076 24.5749 328.608 24.8291C326.329 25.8458 324.557 27.1166 323.038 28.6416C320.759 28.6416 318.987 30.1666 318.734 32.1999C312.658 32.9624 307.089 34.7416 302.025 37.2833C303.038 34.9958 304.81 32.9624 306.835 31.1833H306.329ZM299.241 38.5541C296.456 40.3333 293.924 42.1124 291.646 44.3999C294.937 40.3333 298.734 36.5208 302.785 33.4708C301.266 34.9958 300.253 36.7749 299.241 38.5541ZM301.772 55.0749C299.241 49.7374 298.987 44.3999 300.506 39.5708C305.823 36.7749 311.646 34.7416 318.228 33.7249C317.722 34.9958 319.494 37.5374 320.506 37.2833C320.506 39.5708 320.506 40.5874 321.772 42.8749C314.937 45.9249 307.595 50.4999 302.025 55.0749H301.772ZM363.291 28.3874C363.291 28.3874 363.038 28.3874 362.785 28.3874C361.013 27.3708 358.987 26.3541 356.962 25.5916C359.241 26.3541 361.266 27.3708 363.291 28.3874ZM374.43 39.3166C373.418 37.5374 372.152 35.7583 370.38 34.2333C368.861 32.4541 366.835 31.1833 364.81 29.6583C365.063 29.6583 365.316 29.6583 365.823 29.6583C372.658 33.4708 378.481 38.8083 383.038 44.9083C380.506 42.6208 377.722 40.8416 374.43 39.3166Z" fill="black"></path>
</svg>