<svg width="196" height="25" viewBox="0 0 196 24.386" fill="none" xmlns="http://www.w3.org/2000/svg">
  <!-- DOTH -->
  <path d="M8.72433 0.536845H0V23.8916C1.18624 23.8916 8.46912 23.8916 8.72433 23.8916C15.1672 23.8916 20.4016 18.4781 20.4016 12.2148C20.4016 5.81621 15.1223 0.536845 8.72433 0.536845ZM8.72433 18.9245H4.96635V5.50258H8.72433C12.3931 5.50258 15.4353 8.59026 15.4353 12.2142C15.4353 15.8824 12.3482 18.9245 8.72433 18.9245ZM33.8457 0.0448838C27.8057 -0.134067 22.6161 5.59237 22.7053 12.2142C22.6155 18.7905 27.8057 24.5175 33.8457 24.3835C39.8858 24.5175 45.0754 18.7905 44.9862 12.2142C45.0754 5.59298 39.8858 -0.134067 33.8457 0.0448838ZM38.0514 17.5384C36.9328 19.0149 35.5012 19.7307 33.8457 19.7307C32.1903 19.7307 30.8036 19.0149 29.6401 17.5384C28.5215 16.0619 27.9397 14.3173 27.9397 12.2148C27.9397 8.09891 30.5791 4.69823 33.8457 4.69823C35.5012 4.69823 36.8879 5.45831 38.0514 6.93481C39.2149 8.41131 39.796 10.1559 39.796 12.2148C39.796 14.3167 39.2149 16.0613 38.0514 17.5384ZM46.7972 0.536845H68.6754V5.50258H60.2198V23.8909H55.2534V5.50258H46.7979L46.7972 0.536845ZM92.8332 0.536845V23.8916H87.8225V14.6746H77.8911V23.8909H72.9247V0.536845H77.8911V9.70886H87.8225V0.536845H92.8332Z" fill="#0A1E98"/>
  <!-- NEWS -->
  <path d="M111.736 0.536853H116.746V23.8915H112.764L101.802 9.93271V23.8915H96.8365V0.536853H100.818L111.734 14.5405V0.536853H111.736ZM120.996 23.8688H135.895V18.9024H125.962V14.6525H135.895V9.68673H125.962V5.48045H135.895V0.514715H120.996V23.8688ZM163.855 14.6746L157.412 0.536853H152.089L155.31 7.33761L151.955 14.6752L145.468 0.537469H140.143L151.418 24.3841H152.447L157.905 12.8408L163.364 24.3841H164.348L175.667 0.537469H170.344L163.855 14.6746ZM194.121 12.8402C192.869 11.9012 191.392 11.1405 189.648 10.6036C187.947 10.0668 186.247 9.48502 184.502 8.90266C182.757 8.27664 181.908 7.60573 181.908 6.84503C181.908 5.41342 183.25 4.56294 185.978 4.56294C188.216 4.56294 191.258 5.59237 193.584 6.75463L195.33 3.04155C192.153 1.02881 188.708 0 185.262 0C180.207 0 176.181 3.22112 176.181 7.06888C176.181 8.81411 176.807 10.2008 178.059 11.2296C179.312 12.2148 180.789 12.9749 182.489 13.556C184.234 14.0929 185.934 14.6746 187.678 15.257C189.424 15.8381 190.318 16.5096 190.318 17.3146C190.318 19.1041 188.304 19.8199 185.933 19.8199C183.518 19.8199 180.654 19.0598 177.299 17.4935L176.583 21.6094C179.446 23.4438 182.668 24.3841 186.291 24.3841C191.436 24.3841 195.999 21.5651 195.999 16.7777C196 15.1223 195.374 13.7798 194.121 12.8402Z" fill="#394AF7"/>
</svg>
